<svg width="13" height="13" viewBox="0 0 13 13" fill="none" xmlns="http://www.w3.org/2000/svg">
<path d="M12.4236 12.3404C12.1368 12.5998 11.7477 12.7454 11.342 12.7454C10.9363 12.7454 10.5473 12.5998 10.2604 12.3404L6.88113 8.84858L3.50184 12.3393C3.36023 12.4694 3.19151 12.5729 3.00543 12.6438C2.81935 12.7147 2.61959 12.7516 2.41766 12.7523C2.21574 12.7531 2.01565 12.7176 1.82893 12.6481C1.64222 12.5786 1.47258 12.4764 1.3298 12.3473C1.18701 12.2182 1.07391 12.0648 0.997018 11.896C0.920124 11.7272 0.880958 11.5463 0.88178 11.3638C0.882603 11.1812 0.923396 11.0006 1.00181 10.8324C1.08022 10.6642 1.1947 10.5116 1.33864 10.3836L4.85432 6.75347L1.33737 3.12103C1.19342 2.993 1.07895 2.84047 1.00053 2.67224C0.922122 2.50401 0.881328 2.32341 0.880506 2.14086C0.879684 1.95831 0.918849 1.77742 0.995743 1.60862C1.07264 1.43982 1.18574 1.28645 1.32852 1.15736C1.47131 1.02828 1.64095 0.926029 1.82766 0.856513C2.01437 0.786996 2.21446 0.751587 2.41639 0.752331C2.61831 0.753074 2.81808 0.789954 3.00416 0.860843C3.19024 0.931733 3.35895 1.03523 3.50057 1.16536L6.88113 4.65836L10.2604 1.16536C10.402 1.03523 10.5707 0.931733 10.7568 0.860843C10.9429 0.789954 11.1427 0.753074 11.3446 0.752331C11.5465 0.751587 11.7466 0.786996 11.9333 0.856513C12.12 0.926029 12.2897 1.02828 12.4325 1.15736C12.5752 1.28645 12.6883 1.43982 12.7652 1.60862C12.8421 1.77742 12.8813 1.95831 12.8805 2.14086C12.8797 2.32341 12.8389 2.50401 12.7605 2.67224C12.682 2.84047 12.5676 2.993 12.4236 3.12103L8.90794 6.75347L12.4236 10.3836C12.5658 10.512 12.6787 10.6646 12.7556 10.8324C12.8326 11.0003 12.8722 11.1803 12.8722 11.362C12.8722 11.5438 12.8326 11.7237 12.7556 11.8916C12.6787 12.0595 12.5658 12.212 12.4236 12.3404Z" fill="white"/>
</svg>
