<svg width="18" height="18" viewBox="0 0 18 18" fill="none" xmlns="http://www.w3.org/2000/svg">
<path d="M17.8246 7.23732H17.0997V7.19997H8.99984V10.8H14.0861C13.3441 12.8956 11.3501 14.4 8.99984 14.4C6.01774 14.4 3.59994 11.9821 3.59994 8.99997C3.59994 6.01782 6.01774 3.59997 8.99984 3.59997C10.3764 3.59997 11.6287 4.11927 12.5822 4.96752L15.1278 2.42187C13.5205 0.923819 11.3704 -3.05176e-05 8.99984 -3.05176e-05C4.02968 -3.05176e-05 0 4.02972 0 8.99997C0 13.9702 4.02968 18 8.99984 18C13.97 18 17.9997 13.9702 17.9997 8.99997C17.9997 8.39652 17.9376 7.80747 17.8246 7.23732Z" fill="#FFC107"/>
<path d="M1.03711 4.81092L3.99401 6.97947C4.79409 4.99857 6.73176 3.59997 8.99927 3.59997C10.3758 3.59997 11.6281 4.11927 12.5817 4.96752L15.1273 2.42187C13.5199 0.923819 11.3698 -3.05176e-05 8.99927 -3.05176e-05C5.54243 -3.05176e-05 2.54458 1.95162 1.03711 4.81092Z" fill="#FF3D00"/>
<path d="M8.99941 18C11.3241 18 13.4363 17.1103 15.0334 15.6636L12.2479 13.3065C11.314 14.0167 10.1727 14.4009 8.99941 14.4C6.65855 14.4 4.67094 12.9073 3.92215 10.8243L0.987305 13.0855C2.47678 16.0002 5.50162 18 8.99941 18Z" fill="#4CAF50"/>
<path d="M17.8248 7.23732H17.0999V7.19997H9V10.8H14.0863C13.7313 11.7974 13.0919 12.6689 12.2471 13.3069L12.2485 13.306L15.0339 15.6631C14.8368 15.8422 17.9998 13.5 17.9998 8.99997C17.9998 8.39652 17.9377 7.80747 17.8248 7.23732Z" fill="#1976D2"/>
</svg>
