<svg width="200" height="206" viewBox="0 0 200 206" fill="none" xmlns="http://www.w3.org/2000/svg">
<rect width="200" height="206" rx="10" fill="#773795"/>
<rect width="200" height="206" rx="10" fill="url(#paint0_linear_75_6)" fill-opacity="0.2"/>
<path d="M18.44 54V37.564L19.672 38.796H12.42V34.4H29.892V38.796H22.668L23.9 37.564V54H18.44ZM38.0844 54.252C36.4231 54.252 34.9484 53.916 33.6604 53.244C32.3724 52.572 31.3551 51.648 30.6084 50.472C29.8804 49.2773 29.5164 47.9147 29.5164 46.384C29.5164 44.8533 29.8804 43.5 30.6084 42.324C31.3551 41.148 32.3724 40.2333 33.6604 39.58C34.9484 38.908 36.4231 38.572 38.0844 38.572C39.7457 38.572 41.2204 38.908 42.5084 39.58C43.8151 40.2333 44.8324 41.148 45.5604 42.324C46.2884 43.5 46.6524 44.8533 46.6524 46.384C46.6524 47.9147 46.2884 49.2773 45.5604 50.472C44.8324 51.648 43.8151 52.572 42.5084 53.244C41.2204 53.916 39.7457 54.252 38.0844 54.252ZM38.0844 50.024C38.7004 50.024 39.2417 49.884 39.7084 49.604C40.1937 49.324 40.5764 48.9133 40.8564 48.372C41.1364 47.812 41.2764 47.1493 41.2764 46.384C41.2764 45.6187 41.1364 44.9747 40.8564 44.452C40.5764 43.9107 40.1937 43.5 39.7084 43.22C39.2417 42.94 38.7004 42.8 38.0844 42.8C37.4871 42.8 36.9457 42.94 36.4604 43.22C35.9937 43.5 35.6111 43.9107 35.3124 44.452C35.0324 44.9747 34.8924 45.6187 34.8924 46.384C34.8924 47.1493 35.0324 47.812 35.3124 48.372C35.6111 48.9133 35.9937 49.324 36.4604 49.604C36.9457 49.884 37.4871 50.024 38.0844 50.024ZM49.1475 54V38.824H64.8275V54H59.5355V41.904L60.7115 43.052H53.2915L54.4395 41.904V54H49.1475ZM79.9886 54V41.876L81.1366 43.052H75.0886V38.824H90.1526V43.052H84.1046L85.2806 41.876V54H79.9886ZM101.762 54.252C100.474 54.252 99.3725 53.972 98.4579 53.412C97.5432 52.8333 96.8432 51.9747 96.3579 50.836C95.8912 49.6787 95.6579 48.204 95.6579 46.412C95.6579 44.6013 95.8819 43.1267 96.3299 41.988C96.7779 40.8307 97.4499 39.972 98.3459 39.412C99.2605 38.852 100.399 38.572 101.762 38.572C103.143 38.572 104.394 38.8987 105.514 39.552C106.653 40.1867 107.549 41.092 108.202 42.268C108.874 43.4253 109.21 44.8067 109.21 46.412C109.21 48.0173 108.874 49.408 108.202 50.584C107.549 51.76 106.653 52.6653 105.514 53.3C104.394 53.9347 103.143 54.252 101.762 54.252ZM92.2139 59.432V38.824H97.2819V41.4L97.2539 46.412L97.5339 51.452V59.432H92.2139ZM100.642 50.024C101.239 50.024 101.771 49.884 102.238 49.604C102.723 49.324 103.106 48.9133 103.386 48.372C103.685 47.8307 103.834 47.1773 103.834 46.412C103.834 45.6467 103.685 44.9933 103.386 44.452C103.106 43.9107 102.723 43.5 102.238 43.22C101.771 42.94 101.239 42.8 100.642 42.8C100.045 42.8 99.5032 42.94 99.0179 43.22C98.5512 43.5 98.1685 43.9107 97.8699 44.452C97.5899 44.9933 97.4499 45.6467 97.4499 46.412C97.4499 47.1773 97.5899 47.8307 97.8699 48.372C98.1685 48.9133 98.5512 49.324 99.0179 49.604C99.5032 49.884 100.045 50.024 100.642 50.024ZM119.577 54.252C117.785 54.252 116.217 53.916 114.873 53.244C113.547 52.5533 112.511 51.62 111.765 50.444C111.037 49.2493 110.673 47.896 110.673 46.384C110.673 44.872 111.027 43.528 111.737 42.352C112.465 41.1573 113.463 40.2333 114.733 39.58C116.002 38.908 117.43 38.572 119.017 38.572C120.51 38.572 121.873 38.88 123.105 39.496C124.337 40.0933 125.317 40.98 126.045 42.156C126.773 43.332 127.137 44.76 127.137 46.44C127.137 46.6267 127.127 46.8413 127.109 47.084C127.09 47.3267 127.071 47.5507 127.053 47.756H115.041V44.956H124.225L122.209 45.74C122.227 45.0493 122.097 44.452 121.817 43.948C121.555 43.444 121.182 43.052 120.697 42.772C120.23 42.492 119.679 42.352 119.045 42.352C118.41 42.352 117.85 42.492 117.365 42.772C116.898 43.052 116.534 43.4533 116.273 43.976C116.011 44.48 115.881 45.0773 115.881 45.768V46.58C115.881 47.3267 116.03 47.9707 116.329 48.512C116.646 49.0533 117.094 49.4733 117.673 49.772C118.251 50.052 118.942 50.192 119.745 50.192C120.491 50.192 121.126 50.0893 121.649 49.884C122.19 49.66 122.722 49.324 123.245 48.876L126.045 51.788C125.317 52.5907 124.421 53.2067 123.357 53.636C122.293 54.0467 121.033 54.252 119.577 54.252ZM140.588 54L135.968 46.916L140.252 44.396L146.86 54H140.588ZM129.948 54V38.824H135.268V54H129.948ZM133.7 48.596V44.424H139.188V48.596H133.7ZM140.784 47L135.8 46.496L140.896 38.824H146.524L140.784 47ZM155.663 54.252C154.001 54.252 152.527 53.916 151.239 53.244C149.951 52.572 148.933 51.648 148.187 50.472C147.459 49.2773 147.095 47.9147 147.095 46.384C147.095 44.8533 147.459 43.5 148.187 42.324C148.933 41.148 149.951 40.2333 151.239 39.58C152.527 38.908 154.001 38.572 155.663 38.572C157.324 38.572 158.799 38.908 160.087 39.58C161.393 40.2333 162.411 41.148 163.139 42.324C163.867 43.5 164.231 44.8533 164.231 46.384C164.231 47.9147 163.867 49.2773 163.139 50.472C162.411 51.648 161.393 52.572 160.087 53.244C158.799 53.916 157.324 54.252 155.663 54.252ZM155.663 50.024C156.279 50.024 156.82 49.884 157.287 49.604C157.772 49.324 158.155 48.9133 158.435 48.372C158.715 47.812 158.855 47.1493 158.855 46.384C158.855 45.6187 158.715 44.9747 158.435 44.452C158.155 43.9107 157.772 43.5 157.287 43.22C156.82 42.94 156.279 42.8 155.663 42.8C155.065 42.8 154.524 42.94 154.039 43.22C153.572 43.5 153.189 43.9107 152.891 44.452C152.611 44.9747 152.471 45.6187 152.471 46.384C152.471 47.1493 152.611 47.812 152.891 48.372C153.189 48.9133 153.572 49.324 154.039 49.604C154.524 49.884 155.065 50.024 155.663 50.024ZM166.726 54V38.824H174.874C176.834 38.824 178.364 39.1693 179.466 39.86C180.567 40.532 181.118 41.5027 181.118 42.772C181.118 43.9853 180.604 44.956 179.578 45.684C178.57 46.3933 177.207 46.748 175.49 46.748L175.966 45.628C177.814 45.628 179.204 45.9733 180.138 46.664C181.09 47.336 181.566 48.3253 181.566 49.632C181.566 50.976 181.043 52.04 179.998 52.824C178.971 53.608 177.394 54 175.266 54H166.726ZM171.486 50.556H174.79C175.443 50.556 175.928 50.444 176.246 50.22C176.563 49.9773 176.722 49.6227 176.722 49.156C176.722 48.6707 176.563 48.316 176.246 48.092C175.947 47.868 175.48 47.756 174.846 47.756H171.486V50.556ZM171.486 44.928H174.398C175.032 44.928 175.499 44.816 175.798 44.592C176.096 44.3493 176.246 44.004 176.246 43.556C176.246 43.108 176.096 42.7813 175.798 42.576C175.499 42.352 175.032 42.24 174.398 42.24H171.486V44.928Z" fill="white"/>
<path d="M13.792 96V80.824H21.94C23.9 80.824 25.4307 81.1693 26.532 81.86C27.6333 82.532 28.184 83.5027 28.184 84.772C28.184 85.9853 27.6707 86.956 26.644 87.684C25.636 88.3933 24.2733 88.748 22.556 88.748L23.032 87.628C24.88 87.628 26.2707 87.9733 27.204 88.664C28.156 89.336 28.632 90.3253 28.632 91.632C28.632 92.976 28.1093 94.04 27.064 94.824C26.0373 95.608 24.46 96 22.332 96H13.792ZM18.552 92.556H21.856C22.5093 92.556 22.9947 92.444 23.312 92.22C23.6293 91.9773 23.788 91.6227 23.788 91.156C23.788 90.6707 23.6293 90.316 23.312 90.092C23.0133 89.868 22.5467 89.756 21.912 89.756H18.552V92.556ZM18.552 86.928H21.464C22.0987 86.928 22.5653 86.816 22.864 86.592C23.1627 86.3493 23.312 86.004 23.312 85.556C23.312 85.108 23.1627 84.7813 22.864 84.576C22.5653 84.352 22.0987 84.24 21.464 84.24H18.552V86.928ZM38.7953 96.252C37.134 96.252 35.6593 95.916 34.3713 95.244C33.0833 94.572 32.066 93.648 31.3193 92.472C30.5913 91.2773 30.2273 89.9147 30.2273 88.384C30.2273 86.8533 30.5913 85.5 31.3193 84.324C32.066 83.148 33.0833 82.2333 34.3713 81.58C35.6593 80.908 37.134 80.572 38.7953 80.572C40.4567 80.572 41.9313 80.908 43.2193 81.58C44.526 82.2333 45.5433 83.148 46.2713 84.324C46.9993 85.5 47.3633 86.8533 47.3633 88.384C47.3633 89.9147 46.9993 91.2773 46.2713 92.472C45.5433 93.648 44.526 94.572 43.2193 95.244C41.9313 95.916 40.4567 96.252 38.7953 96.252ZM38.7953 92.024C39.4113 92.024 39.9527 91.884 40.4193 91.604C40.9047 91.324 41.2873 90.9133 41.5673 90.372C41.8473 89.812 41.9873 89.1493 41.9873 88.384C41.9873 87.6187 41.8473 86.9747 41.5673 86.452C41.2873 85.9107 40.9047 85.5 40.4193 85.22C39.9527 84.94 39.4113 84.8 38.7953 84.8C38.198 84.8 37.6567 84.94 37.1713 85.22C36.7047 85.5 36.322 85.9107 36.0233 86.452C35.7433 86.9747 35.6033 87.6187 35.6033 88.384C35.6033 89.1493 35.7433 89.812 36.0233 90.372C36.322 90.9133 36.7047 91.324 37.1713 91.604C37.6567 91.884 38.198 92.024 38.7953 92.024ZM58.0068 96V80.824H66.1548C68.1148 80.824 69.6455 81.1693 70.7468 81.86C71.8482 82.532 72.3988 83.5027 72.3988 84.772C72.3988 85.9853 71.8855 86.956 70.8588 87.684C69.8508 88.3933 68.4882 88.748 66.7708 88.748L67.2468 87.628C69.0948 87.628 70.4855 87.9733 71.4188 88.664C72.3708 89.336 72.8468 90.3253 72.8468 91.632C72.8468 92.976 72.3242 94.04 71.2788 94.824C70.2522 95.608 68.6748 96 66.5468 96H58.0068ZM62.7668 92.556H66.0708C66.7242 92.556 67.2095 92.444 67.5268 92.22C67.8442 91.9773 68.0028 91.6227 68.0028 91.156C68.0028 90.6707 67.8442 90.316 67.5268 90.092C67.2282 89.868 66.7615 89.756 66.1268 89.756H62.7668V92.556ZM62.7668 86.928H65.6788C66.3135 86.928 66.7802 86.816 67.0788 86.592C67.3775 86.3493 67.5268 86.004 67.5268 85.556C67.5268 85.108 67.3775 84.7813 67.0788 84.576C66.7802 84.352 66.3135 84.24 65.6788 84.24H62.7668V86.928ZM83.1502 96.252C81.4702 96.252 79.9675 95.916 78.6422 95.244C77.3355 94.572 76.3089 93.648 75.5622 92.472C74.8155 91.2773 74.4422 89.9147 74.4422 88.384C74.4422 86.8533 74.8155 85.5 75.5622 84.324C76.3089 83.148 77.3355 82.2333 78.6422 81.58C79.9675 80.908 81.4702 80.572 83.1502 80.572C84.8675 80.572 86.3515 80.936 87.6022 81.664C88.8529 82.392 89.7395 83.4187 90.2622 84.744L86.1462 86.844C85.7915 86.1347 85.3529 85.6213 84.8302 85.304C84.3075 84.968 83.7382 84.8 83.1222 84.8C82.5062 84.8 81.9462 84.94 81.4422 85.22C80.9382 85.5 80.5369 85.9107 80.2382 86.452C79.9582 86.9747 79.8182 87.6187 79.8182 88.384C79.8182 89.168 79.9582 89.8307 80.2382 90.372C80.5369 90.9133 80.9382 91.324 81.4422 91.604C81.9462 91.884 82.5062 92.024 83.1222 92.024C83.7382 92.024 84.3075 91.8653 84.8302 91.548C85.3529 91.212 85.7915 90.6893 86.1462 89.98L90.2622 92.08C89.7395 93.4053 88.8529 94.432 87.6022 95.16C86.3515 95.888 84.8675 96.252 83.1502 96.252ZM100.135 96.252C98.3433 96.252 96.7753 95.916 95.4313 95.244C94.1059 94.5533 93.0699 93.62 92.3233 92.444C91.5953 91.2493 91.2313 89.896 91.2313 88.384C91.2313 86.872 91.5859 85.528 92.2953 84.352C93.0233 83.1573 94.0219 82.2333 95.2913 81.58C96.5606 80.908 97.9886 80.572 99.5753 80.572C101.069 80.572 102.431 80.88 103.663 81.496C104.895 82.0933 105.875 82.98 106.603 84.156C107.331 85.332 107.695 86.76 107.695 88.44C107.695 88.6267 107.686 88.8413 107.667 89.084C107.649 89.3267 107.63 89.5507 107.611 89.756H95.5993V86.956H104.783L102.767 87.74C102.786 87.0493 102.655 86.452 102.375 85.948C102.114 85.444 101.741 85.052 101.255 84.772C100.789 84.492 100.238 84.352 99.6033 84.352C98.9686 84.352 98.4086 84.492 97.9232 84.772C97.4566 85.052 97.0926 85.4533 96.8313 85.976C96.5699 86.48 96.4393 87.0773 96.4393 87.768V88.58C96.4393 89.3267 96.5886 89.9707 96.8873 90.512C97.2046 91.0533 97.6526 91.4733 98.2313 91.772C98.8099 92.052 99.5006 92.192 100.303 92.192C101.05 92.192 101.685 92.0893 102.207 91.884C102.749 91.66 103.281 91.324 103.803 90.876L106.603 93.788C105.875 94.5907 104.979 95.2067 103.915 95.636C102.851 96.0467 101.591 96.252 100.135 96.252ZM110.507 96V80.824H116.107L121.399 90.736H119.187L124.983 80.824H129.995L130.023 96H125.235V86.088L126.047 86.648L121.343 94.656H119.075L114.371 86.256L115.295 86.004V96H110.507ZM13.792 130V114.824H19.392L24.684 124.736H22.472L28.268 114.824H33.28L33.308 130H28.52V120.088L29.332 120.648L24.628 128.656H22.36L17.656 120.256L18.58 120.004V130H13.792ZM36.8975 130V114.824H42.1895V122.776L48.5455 114.824H53.4455V130H48.1255V122.02L41.8255 130H36.8975ZM66.5705 130.252C65.2825 130.252 64.1811 129.972 63.2665 129.412C62.3518 128.833 61.6518 127.975 61.1665 126.836C60.6998 125.679 60.4665 124.204 60.4665 122.412C60.4665 120.601 60.6905 119.127 61.1385 117.988C61.5865 116.831 62.2585 115.972 63.1545 115.412C64.0691 114.852 65.2078 114.572 66.5705 114.572C67.9518 114.572 69.2025 114.899 70.3225 115.552C71.4611 116.187 72.3571 117.092 73.0105 118.268C73.6825 119.425 74.0185 120.807 74.0185 122.412C74.0185 124.017 73.6825 125.408 73.0105 126.584C72.3571 127.76 71.4611 128.665 70.3225 129.3C69.2025 129.935 67.9518 130.252 66.5705 130.252ZM57.0225 135.432V114.824H62.0905V117.4L62.0625 122.412L62.3425 127.452V135.432H57.0225ZM65.4505 126.024C66.0478 126.024 66.5798 125.884 67.0465 125.604C67.5318 125.324 67.9145 124.913 68.1945 124.372C68.4931 123.831 68.6425 123.177 68.6425 122.412C68.6425 121.647 68.4931 120.993 68.1945 120.452C67.9145 119.911 67.5318 119.5 67.0465 119.22C66.5798 118.94 66.0478 118.8 65.4505 118.8C64.8531 118.8 64.3118 118.94 63.8265 119.22C63.3598 119.5 62.9771 119.911 62.6785 120.452C62.3985 120.993 62.2585 121.647 62.2585 122.412C62.2585 123.177 62.3985 123.831 62.6785 124.372C62.9771 124.913 63.3598 125.324 63.8265 125.604C64.3118 125.884 64.8531 126.024 65.4505 126.024ZM84.3853 130.252C82.5933 130.252 81.0253 129.916 79.6813 129.244C78.3559 128.553 77.3199 127.62 76.5733 126.444C75.8453 125.249 75.4813 123.896 75.4813 122.384C75.4813 120.872 75.8359 119.528 76.5453 118.352C77.2733 117.157 78.2719 116.233 79.5413 115.58C80.8106 114.908 82.2386 114.572 83.8253 114.572C85.3186 114.572 86.6813 114.88 87.9133 115.496C89.1453 116.093 90.1253 116.98 90.8533 118.156C91.5813 119.332 91.9453 120.76 91.9453 122.44C91.9453 122.627 91.9359 122.841 91.9173 123.084C91.8986 123.327 91.8799 123.551 91.8613 123.756H79.8493V120.956H89.0333L87.0173 121.74C87.0359 121.049 86.9053 120.452 86.6253 119.948C86.3639 119.444 85.9906 119.052 85.5053 118.772C85.0386 118.492 84.4879 118.352 83.8533 118.352C83.2186 118.352 82.6586 118.492 82.1732 118.772C81.7066 119.052 81.3426 119.453 81.0813 119.976C80.8199 120.48 80.6893 121.077 80.6893 121.768V122.58C80.6893 123.327 80.8386 123.971 81.1373 124.512C81.4546 125.053 81.9026 125.473 82.4813 125.772C83.0599 126.052 83.7506 126.192 84.5533 126.192C85.2999 126.192 85.9346 126.089 86.4573 125.884C86.9986 125.66 87.5306 125.324 88.0533 124.876L90.8533 127.788C90.1253 128.591 89.2293 129.207 88.1653 129.636C87.1013 130.047 85.8413 130.252 84.3853 130.252Z" fill="#C8AED4"/>
<path d="M35.975 179.041C35.3163 179.307 34.683 179.51 34.075 179.649C33.467 179.776 32.8843 179.839 32.327 179.839C30.541 179.839 29.173 179.415 28.223 178.566C27.273 177.705 26.798 176.47 26.798 174.861V170.7H29.838V174.519C29.838 175.431 30.085 176.121 30.579 176.59C31.073 177.046 31.776 177.274 32.688 177.274C33.2707 177.274 33.8343 177.211 34.379 177.084C34.9237 176.945 35.4303 176.748 35.899 176.495L35.975 179.041ZM35.538 184V170.7H38.578V184H35.538ZM47.7744 184V182.005L47.5844 181.568V177.996C47.5844 177.363 47.3881 176.869 46.9954 176.514C46.6154 176.159 46.0264 175.982 45.2284 175.982C44.6838 175.982 44.1454 176.071 43.6134 176.248C43.0941 176.413 42.6508 176.641 42.2834 176.932L41.2194 174.861C41.7768 174.468 42.4481 174.164 43.2334 173.949C44.0188 173.734 44.8168 173.626 45.6274 173.626C47.1854 173.626 48.3951 173.993 49.2564 174.728C50.1178 175.463 50.5484 176.609 50.5484 178.167V184H47.7744ZM44.6584 184.152C43.8604 184.152 43.1764 184.019 42.6064 183.753C42.0364 183.474 41.5994 183.101 41.2954 182.632C40.9914 182.163 40.8394 181.638 40.8394 181.055C40.8394 180.447 40.9851 179.915 41.2764 179.459C41.5804 179.003 42.0554 178.648 42.7014 178.395C43.3474 178.129 44.1898 177.996 45.2284 177.996H47.9454V179.725H45.5514C44.8548 179.725 44.3734 179.839 44.1074 180.067C43.8541 180.295 43.7274 180.58 43.7274 180.922C43.7274 181.302 43.8731 181.606 44.1644 181.834C44.4684 182.049 44.8801 182.157 45.3994 182.157C45.8934 182.157 46.3368 182.043 46.7294 181.815C47.1221 181.574 47.4071 181.226 47.5844 180.77L48.0404 182.138C47.8251 182.797 47.4324 183.297 46.8624 183.639C46.2924 183.981 45.5578 184.152 44.6584 184.152ZM59.1462 184.152C58.2849 184.152 57.5312 183.962 56.8852 183.582C56.2392 183.202 55.7326 182.626 55.3652 181.853C55.0106 181.068 54.8332 180.08 54.8332 178.889C54.8332 177.686 55.0042 176.698 55.3462 175.925C55.6882 175.152 56.1822 174.576 56.8282 174.196C57.4742 173.816 58.2469 173.626 59.1462 173.626C60.1089 173.626 60.9702 173.848 61.7302 174.291C62.5029 174.722 63.1109 175.33 63.5542 176.115C64.0102 176.9 64.2382 177.825 64.2382 178.889C64.2382 179.966 64.0102 180.897 63.5542 181.682C63.1109 182.467 62.5029 183.075 61.7302 183.506C60.9702 183.937 60.1089 184.152 59.1462 184.152ZM53.1042 187.686V173.778H55.9352V175.868L55.8782 178.908L56.0682 181.929V187.686H53.1042ZM58.6332 181.72C59.1272 181.72 59.5642 181.606 59.9442 181.378C60.3369 181.15 60.6472 180.827 60.8752 180.409C61.1159 179.978 61.2362 179.472 61.2362 178.889C61.2362 178.294 61.1159 177.787 60.8752 177.369C60.6472 176.951 60.3369 176.628 59.9442 176.4C59.5642 176.172 59.1272 176.058 58.6332 176.058C58.1392 176.058 57.6959 176.172 57.3032 176.4C56.9106 176.628 56.6002 176.951 56.3722 177.369C56.1442 177.787 56.0302 178.294 56.0302 178.889C56.0302 179.472 56.1442 179.978 56.3722 180.409C56.6002 180.827 56.9106 181.15 57.3032 181.378C57.6959 181.606 58.1392 181.72 58.6332 181.72ZM68.1295 184V175.526L68.7945 176.21H64.6715V173.778H74.5325V176.21H70.4095L71.0745 175.526V184H68.1295ZM86.6385 184V173.778H89.5835V184H86.6385ZM81.4895 177.046C82.8322 177.059 83.8392 177.363 84.5105 177.958C85.1945 178.541 85.5365 179.37 85.5365 180.447C85.5365 181.574 85.1502 182.455 84.3775 183.088C83.6048 183.709 82.5092 184.019 81.0905 184.019L76.1125 184V173.778H79.0575V177.046H81.4895ZM80.8245 181.91C81.3945 181.923 81.8315 181.802 82.1355 181.549C82.4395 181.296 82.5915 180.916 82.5915 180.409C82.5915 179.902 82.4395 179.541 82.1355 179.326C81.8315 179.098 81.3945 178.978 80.8245 178.965L79.0575 178.946V181.91H80.8245ZM97.8215 184V173.778H100.766V177.768H105.212V173.778H108.176V184H105.212V180.181H100.766V184H97.8215ZM116.011 184.152C114.846 184.152 113.82 183.924 112.933 183.468C112.059 183.012 111.381 182.391 110.9 181.606C110.419 180.808 110.178 179.902 110.178 178.889C110.178 177.863 110.412 176.957 110.881 176.172C111.362 175.374 112.015 174.753 112.838 174.31C113.661 173.854 114.592 173.626 115.631 173.626C116.632 173.626 117.531 173.841 118.329 174.272C119.14 174.69 119.779 175.298 120.248 176.096C120.717 176.881 120.951 177.825 120.951 178.927C120.951 179.041 120.945 179.174 120.932 179.326C120.919 179.465 120.907 179.598 120.894 179.725H112.591V177.996H119.336L118.196 178.509C118.196 177.977 118.088 177.515 117.873 177.122C117.658 176.729 117.36 176.425 116.98 176.21C116.6 175.982 116.157 175.868 115.65 175.868C115.143 175.868 114.694 175.982 114.301 176.21C113.921 176.425 113.623 176.736 113.408 177.141C113.193 177.534 113.085 178.002 113.085 178.547V179.003C113.085 179.56 113.205 180.054 113.446 180.485C113.699 180.903 114.048 181.226 114.491 181.454C114.947 181.669 115.479 181.777 116.087 181.777C116.632 181.777 117.107 181.695 117.512 181.53C117.93 181.365 118.31 181.118 118.652 180.789L120.229 182.499C119.76 183.031 119.171 183.443 118.462 183.734C117.753 184.013 116.936 184.152 116.011 184.152ZM130.16 182.67V176.21H126.816L126.759 177.521C126.734 178.066 126.702 178.585 126.664 179.079C126.626 179.573 126.55 180.023 126.436 180.428C126.335 180.821 126.183 181.156 125.98 181.435C125.777 181.701 125.505 181.885 125.163 181.986L122.237 181.568C122.604 181.568 122.902 181.46 123.13 181.245C123.358 181.017 123.535 180.707 123.662 180.314C123.789 179.909 123.884 179.453 123.947 178.946C124.01 178.427 124.055 177.882 124.08 177.312L124.213 173.778H133.124V182.67H130.16ZM121.895 186.204V181.568H134.587V186.204H131.832V184H124.65V186.204H121.895ZM141.449 184.152C140.284 184.152 139.258 183.924 138.371 183.468C137.497 183.012 136.82 182.391 136.338 181.606C135.857 180.808 135.616 179.902 135.616 178.889C135.616 177.863 135.851 176.957 136.319 176.172C136.801 175.374 137.453 174.753 138.276 174.31C139.1 173.854 140.031 173.626 141.069 173.626C142.07 173.626 142.969 173.841 143.767 174.272C144.578 174.69 145.218 175.298 145.686 176.096C146.155 176.881 146.389 177.825 146.389 178.927C146.389 179.041 146.383 179.174 146.37 179.326C146.358 179.465 146.345 179.598 146.332 179.725H138.029V177.996H144.774L143.634 178.509C143.634 177.977 143.527 177.515 143.311 177.122C143.096 176.729 142.798 176.425 142.418 176.21C142.038 175.982 141.595 175.868 141.088 175.868C140.582 175.868 140.132 175.982 139.739 176.21C139.359 176.425 139.062 176.736 138.846 177.141C138.631 177.534 138.523 178.002 138.523 178.547V179.003C138.523 179.56 138.644 180.054 138.884 180.485C139.138 180.903 139.486 181.226 139.929 181.454C140.385 181.669 140.917 181.777 141.525 181.777C142.07 181.777 142.545 181.695 142.95 181.53C143.368 181.365 143.748 181.118 144.09 180.789L145.667 182.499C145.199 183.031 144.61 183.443 143.9 183.734C143.191 184.013 142.374 184.152 141.449 184.152ZM147.277 183.981L147.429 181.549C147.505 181.562 147.581 181.574 147.657 181.587C147.733 181.587 147.802 181.587 147.866 181.587C148.22 181.587 148.499 181.486 148.702 181.283C148.904 181.08 149.056 180.808 149.158 180.466C149.259 180.111 149.329 179.712 149.367 179.269C149.417 178.826 149.455 178.363 149.481 177.882L149.633 173.778H158.373V184H155.409V175.488L156.074 176.21H151.59L152.217 175.45L152.084 178.015C152.046 178.927 151.97 179.763 151.856 180.523C151.754 181.283 151.583 181.942 151.343 182.499C151.102 183.044 150.779 183.468 150.374 183.772C149.968 184.063 149.449 184.209 148.816 184.209C148.588 184.209 148.347 184.19 148.094 184.152C147.84 184.114 147.568 184.057 147.277 183.981ZM161.223 184V173.778H164.168V179.858L169.146 173.778H171.863V184H168.918V177.92L163.959 184H161.223Z" fill="white"/>
<defs>
<linearGradient id="paint0_linear_75_6" x1="100" y1="0" x2="100" y2="206" gradientUnits="userSpaceOnUse">
<stop stop-opacity="0.7"/>
<stop offset="1" stop-color="white"/>
</linearGradient>
</defs>
</svg>
