<svg width="200" height="206" viewBox="0 0 200 206" fill="none" xmlns="http://www.w3.org/2000/svg">
<rect width="200" height="206" rx="10" fill="#1E3264"/>
<rect width="200" height="206" rx="10" fill="url(#paint0_linear_74_16)" fill-opacity="0.2"/>
<path d="M18.44 54V37.564L19.672 38.796H12.42V34.4H29.892V38.796H22.668L23.9 37.564V54H18.44ZM38.0844 54.252C36.4231 54.252 34.9484 53.916 33.6604 53.244C32.3724 52.572 31.3551 51.648 30.6084 50.472C29.8804 49.2773 29.5164 47.9147 29.5164 46.384C29.5164 44.8533 29.8804 43.5 30.6084 42.324C31.3551 41.148 32.3724 40.2333 33.6604 39.58C34.9484 38.908 36.4231 38.572 38.0844 38.572C39.7457 38.572 41.2204 38.908 42.5084 39.58C43.8151 40.2333 44.8324 41.148 45.5604 42.324C46.2884 43.5 46.6524 44.8533 46.6524 46.384C46.6524 47.9147 46.2884 49.2773 45.5604 50.472C44.8324 51.648 43.8151 52.572 42.5084 53.244C41.2204 53.916 39.7457 54.252 38.0844 54.252ZM38.0844 50.024C38.7004 50.024 39.2417 49.884 39.7084 49.604C40.1937 49.324 40.5764 48.9133 40.8564 48.372C41.1364 47.812 41.2764 47.1493 41.2764 46.384C41.2764 45.6187 41.1364 44.9747 40.8564 44.452C40.5764 43.9107 40.1937 43.5 39.7084 43.22C39.2417 42.94 38.7004 42.8 38.0844 42.8C37.4871 42.8 36.9457 42.94 36.4604 43.22C35.9937 43.5 35.6111 43.9107 35.3124 44.452C35.0324 44.9747 34.8924 45.6187 34.8924 46.384C34.8924 47.1493 35.0324 47.812 35.3124 48.372C35.6111 48.9133 35.9937 49.324 36.4604 49.604C36.9457 49.884 37.4871 50.024 38.0844 50.024ZM49.1475 54V38.824H64.8275V54H59.5355V41.904L60.7115 43.052H53.2915L54.4395 41.904V54H49.1475ZM79.9886 54V41.876L81.1366 43.052H75.0886V38.824H90.1526V43.052H84.1046L85.2806 41.876V54H79.9886ZM101.762 54.252C100.474 54.252 99.3725 53.972 98.4579 53.412C97.5432 52.8333 96.8432 51.9747 96.3579 50.836C95.8912 49.6787 95.6579 48.204 95.6579 46.412C95.6579 44.6013 95.8819 43.1267 96.3299 41.988C96.7779 40.8307 97.4499 39.972 98.3459 39.412C99.2605 38.852 100.399 38.572 101.762 38.572C103.143 38.572 104.394 38.8987 105.514 39.552C106.653 40.1867 107.549 41.092 108.202 42.268C108.874 43.4253 109.21 44.8067 109.21 46.412C109.21 48.0173 108.874 49.408 108.202 50.584C107.549 51.76 106.653 52.6653 105.514 53.3C104.394 53.9347 103.143 54.252 101.762 54.252ZM92.2139 59.432V38.824H97.2819V41.4L97.2539 46.412L97.5339 51.452V59.432H92.2139ZM100.642 50.024C101.239 50.024 101.771 49.884 102.238 49.604C102.723 49.324 103.106 48.9133 103.386 48.372C103.685 47.8307 103.834 47.1773 103.834 46.412C103.834 45.6467 103.685 44.9933 103.386 44.452C103.106 43.9107 102.723 43.5 102.238 43.22C101.771 42.94 101.239 42.8 100.642 42.8C100.045 42.8 99.5032 42.94 99.0179 43.22C98.5512 43.5 98.1685 43.9107 97.8699 44.452C97.5899 44.9933 97.4499 45.6467 97.4499 46.412C97.4499 47.1773 97.5899 47.8307 97.8699 48.372C98.1685 48.9133 98.5512 49.324 99.0179 49.604C99.5032 49.884 100.045 50.024 100.642 50.024ZM119.577 54.252C117.785 54.252 116.217 53.916 114.873 53.244C113.547 52.5533 112.511 51.62 111.765 50.444C111.037 49.2493 110.673 47.896 110.673 46.384C110.673 44.872 111.027 43.528 111.737 42.352C112.465 41.1573 113.463 40.2333 114.733 39.58C116.002 38.908 117.43 38.572 119.017 38.572C120.51 38.572 121.873 38.88 123.105 39.496C124.337 40.0933 125.317 40.98 126.045 42.156C126.773 43.332 127.137 44.76 127.137 46.44C127.137 46.6267 127.127 46.8413 127.109 47.084C127.09 47.3267 127.071 47.5507 127.053 47.756H115.041V44.956H124.225L122.209 45.74C122.227 45.0493 122.097 44.452 121.817 43.948C121.555 43.444 121.182 43.052 120.697 42.772C120.23 42.492 119.679 42.352 119.045 42.352C118.41 42.352 117.85 42.492 117.365 42.772C116.898 43.052 116.534 43.4533 116.273 43.976C116.011 44.48 115.881 45.0773 115.881 45.768V46.58C115.881 47.3267 116.03 47.9707 116.329 48.512C116.646 49.0533 117.094 49.4733 117.673 49.772C118.251 50.052 118.942 50.192 119.745 50.192C120.491 50.192 121.126 50.0893 121.649 49.884C122.19 49.66 122.722 49.324 123.245 48.876L126.045 51.788C125.317 52.5907 124.421 53.2067 123.357 53.636C122.293 54.0467 121.033 54.252 119.577 54.252ZM140.588 54L135.968 46.916L140.252 44.396L146.86 54H140.588ZM129.948 54V38.824H135.268V54H129.948ZM133.7 48.596V44.424H139.188V48.596H133.7ZM140.784 47L135.8 46.496L140.896 38.824H146.524L140.784 47ZM155.663 54.252C154.001 54.252 152.527 53.916 151.239 53.244C149.951 52.572 148.933 51.648 148.187 50.472C147.459 49.2773 147.095 47.9147 147.095 46.384C147.095 44.8533 147.459 43.5 148.187 42.324C148.933 41.148 149.951 40.2333 151.239 39.58C152.527 38.908 154.001 38.572 155.663 38.572C157.324 38.572 158.799 38.908 160.087 39.58C161.393 40.2333 162.411 41.148 163.139 42.324C163.867 43.5 164.231 44.8533 164.231 46.384C164.231 47.9147 163.867 49.2773 163.139 50.472C162.411 51.648 161.393 52.572 160.087 53.244C158.799 53.916 157.324 54.252 155.663 54.252ZM155.663 50.024C156.279 50.024 156.82 49.884 157.287 49.604C157.772 49.324 158.155 48.9133 158.435 48.372C158.715 47.812 158.855 47.1493 158.855 46.384C158.855 45.6187 158.715 44.9747 158.435 44.452C158.155 43.9107 157.772 43.5 157.287 43.22C156.82 42.94 156.279 42.8 155.663 42.8C155.065 42.8 154.524 42.94 154.039 43.22C153.572 43.5 153.189 43.9107 152.891 44.452C152.611 44.9747 152.471 45.6187 152.471 46.384C152.471 47.1493 152.611 47.812 152.891 48.372C153.189 48.9133 153.572 49.324 154.039 49.604C154.524 49.884 155.065 50.024 155.663 50.024ZM166.726 54V38.824H174.874C176.834 38.824 178.364 39.1693 179.466 39.86C180.567 40.532 181.118 41.5027 181.118 42.772C181.118 43.9853 180.604 44.956 179.578 45.684C178.57 46.3933 177.207 46.748 175.49 46.748L175.966 45.628C177.814 45.628 179.204 45.9733 180.138 46.664C181.09 47.336 181.566 48.3253 181.566 49.632C181.566 50.976 181.043 52.04 179.998 52.824C178.971 53.608 177.394 54 175.266 54H166.726ZM171.486 50.556H174.79C175.443 50.556 175.928 50.444 176.246 50.22C176.563 49.9773 176.722 49.6227 176.722 49.156C176.722 48.6707 176.563 48.316 176.246 48.092C175.947 47.868 175.48 47.756 174.846 47.756H171.486V50.556ZM171.486 44.928H174.398C175.032 44.928 175.499 44.816 175.798 44.592C176.096 44.3493 176.246 44.004 176.246 43.556C176.246 43.108 176.096 42.7813 175.798 42.576C175.499 42.352 175.032 42.24 174.398 42.24H171.486V44.928Z" fill="white"/>
<path d="M12.14 96L20.792 76.4H26.252L34.932 96H29.164L22.388 79.116H24.572L17.796 96H12.14ZM16.872 92.192L18.3 88.104H27.876L29.304 92.192H16.872ZM36.8701 96V80.824H45.0181C46.9781 80.824 48.5088 81.1693 49.6101 81.86C50.7115 82.532 51.2621 83.5027 51.2621 84.772C51.2621 85.9853 50.7488 86.956 49.7221 87.684C48.7141 88.3933 47.3515 88.748 45.6341 88.748L46.1101 87.628C47.9581 87.628 49.3488 87.9733 50.2821 88.664C51.2341 89.336 51.7101 90.3253 51.7101 91.632C51.7101 92.976 51.1875 94.04 50.1421 94.824C49.1155 95.608 47.5381 96 45.4101 96H36.8701ZM41.6301 92.556H44.9341C45.5875 92.556 46.0728 92.444 46.3901 92.22C46.7075 91.9773 46.8661 91.6227 46.8661 91.156C46.8661 90.6707 46.7075 90.316 46.3901 90.092C46.0915 89.868 45.6248 89.756 44.9901 89.756H41.6301V92.556ZM41.6301 86.928H44.5421C45.1768 86.928 45.6435 86.816 45.9421 86.592C46.2408 86.3493 46.3901 86.004 46.3901 85.556C46.3901 85.108 46.2408 84.7813 45.9421 84.576C45.6435 84.352 45.1768 84.24 44.5421 84.24H41.6301V86.928ZM62.0135 96.252C60.3335 96.252 58.8308 95.916 57.5055 95.244C56.1988 94.572 55.1721 93.648 54.4255 92.472C53.6788 91.2773 53.3055 89.9147 53.3055 88.384C53.3055 86.8533 53.6788 85.5 54.4255 84.324C55.1721 83.148 56.1988 82.2333 57.5055 81.58C58.8308 80.908 60.3335 80.572 62.0135 80.572C63.7308 80.572 65.2148 80.936 66.4655 81.664C67.7161 82.392 68.6028 83.4187 69.1255 84.744L65.0095 86.844C64.6548 86.1347 64.2161 85.6213 63.6935 85.304C63.1708 84.968 62.6015 84.8 61.9855 84.8C61.3695 84.8 60.8095 84.94 60.3055 85.22C59.8015 85.5 59.4001 85.9107 59.1015 86.452C58.8215 86.9747 58.6815 87.6187 58.6815 88.384C58.6815 89.168 58.8215 89.8307 59.1015 90.372C59.4001 90.9133 59.8015 91.324 60.3055 91.604C60.8095 91.884 61.3695 92.024 61.9855 92.024C62.6015 92.024 63.1708 91.8653 63.6935 91.548C64.2161 91.212 64.6548 90.6893 65.0095 89.98L69.1255 92.08C68.6028 93.4053 67.7161 94.432 66.4655 95.16C65.2148 95.888 63.7308 96.252 62.0135 96.252ZM74.7933 96V83.876L75.9413 85.052H69.8933V80.824H84.9573V85.052H78.9093L80.0853 83.876V96H74.7933ZM96.5666 96.252C95.2786 96.252 94.1772 95.972 93.2626 95.412C92.3479 94.8333 91.6479 93.9747 91.1626 92.836C90.6959 91.6787 90.4626 90.204 90.4626 88.412C90.4626 86.6013 90.6866 85.1267 91.1346 83.988C91.5826 82.8307 92.2546 81.972 93.1506 81.412C94.0652 80.852 95.2039 80.572 96.5666 80.572C97.9479 80.572 99.1986 80.8987 100.319 81.552C101.457 82.1867 102.353 83.092 103.007 84.268C103.679 85.4253 104.015 86.8067 104.015 88.412C104.015 90.0173 103.679 91.408 103.007 92.584C102.353 93.76 101.457 94.6653 100.319 95.3C99.1986 95.9347 97.9479 96.252 96.5666 96.252ZM87.0186 101.432V80.824H92.0866V83.4L92.0586 88.412L92.3386 93.452V101.432H87.0186ZM95.4466 92.024C96.0439 92.024 96.5759 91.884 97.0426 91.604C97.5279 91.324 97.9106 90.9133 98.1906 90.372C98.4892 89.8307 98.6386 89.1773 98.6386 88.412C98.6386 87.6467 98.4892 86.9933 98.1906 86.452C97.9106 85.9107 97.5279 85.5 97.0426 85.22C96.5759 84.94 96.0439 84.8 95.4466 84.8C94.8492 84.8 94.3079 84.94 93.8226 85.22C93.3559 85.5 92.9732 85.9107 92.6746 86.452C92.3946 86.9933 92.2546 87.6467 92.2546 88.412C92.2546 89.1773 92.3946 89.8307 92.6746 90.372C92.9732 90.9133 93.3559 91.324 93.8226 91.604C94.3079 91.884 94.8492 92.024 95.4466 92.024ZM106.569 96V80.824H111.861V88.776L118.217 80.824H123.117V96H117.797V88.02L111.497 96H106.569ZM136.242 96V91.072L136.942 91.884H133.078C130.82 91.884 129.037 91.4267 127.73 90.512C126.424 89.5787 125.77 88.2533 125.77 86.536C125.77 84.7067 126.452 83.2973 127.814 82.308C129.177 81.3187 131.016 80.824 133.33 80.824H140.974V96H136.242ZM125.518 96L129.522 90.232H134.898L131.146 96H125.518ZM136.242 89.476V83.708L136.942 85.024H133.442C132.733 85.024 132.182 85.164 131.79 85.444C131.398 85.7053 131.202 86.1347 131.202 86.732C131.202 87.8893 131.94 88.468 133.414 88.468H136.942L136.242 89.476Z" fill="#A5ADC1"/>
<path d="M35.975 179.041C35.3163 179.307 34.683 179.51 34.075 179.649C33.467 179.776 32.8843 179.839 32.327 179.839C30.541 179.839 29.173 179.415 28.223 178.566C27.273 177.705 26.798 176.47 26.798 174.861V170.7H29.838V174.519C29.838 175.431 30.085 176.121 30.579 176.59C31.073 177.046 31.776 177.274 32.688 177.274C33.2707 177.274 33.8343 177.211 34.379 177.084C34.9237 176.945 35.4303 176.748 35.899 176.495L35.975 179.041ZM35.538 184V170.7H38.578V184H35.538ZM47.7744 184V182.005L47.5844 181.568V177.996C47.5844 177.363 47.3881 176.869 46.9954 176.514C46.6154 176.159 46.0264 175.982 45.2284 175.982C44.6838 175.982 44.1454 176.071 43.6134 176.248C43.0941 176.413 42.6508 176.641 42.2834 176.932L41.2194 174.861C41.7768 174.468 42.4481 174.164 43.2334 173.949C44.0188 173.734 44.8168 173.626 45.6274 173.626C47.1854 173.626 48.3951 173.993 49.2564 174.728C50.1178 175.463 50.5484 176.609 50.5484 178.167V184H47.7744ZM44.6584 184.152C43.8604 184.152 43.1764 184.019 42.6064 183.753C42.0364 183.474 41.5994 183.101 41.2954 182.632C40.9914 182.163 40.8394 181.638 40.8394 181.055C40.8394 180.447 40.9851 179.915 41.2764 179.459C41.5804 179.003 42.0554 178.648 42.7014 178.395C43.3474 178.129 44.1898 177.996 45.2284 177.996H47.9454V179.725H45.5514C44.8548 179.725 44.3734 179.839 44.1074 180.067C43.8541 180.295 43.7274 180.58 43.7274 180.922C43.7274 181.302 43.8731 181.606 44.1644 181.834C44.4684 182.049 44.8801 182.157 45.3994 182.157C45.8934 182.157 46.3368 182.043 46.7294 181.815C47.1221 181.574 47.4071 181.226 47.5844 180.77L48.0404 182.138C47.8251 182.797 47.4324 183.297 46.8624 183.639C46.2924 183.981 45.5578 184.152 44.6584 184.152ZM59.1462 184.152C58.2849 184.152 57.5312 183.962 56.8852 183.582C56.2392 183.202 55.7326 182.626 55.3652 181.853C55.0106 181.068 54.8332 180.08 54.8332 178.889C54.8332 177.686 55.0042 176.698 55.3462 175.925C55.6882 175.152 56.1822 174.576 56.8282 174.196C57.4742 173.816 58.2469 173.626 59.1462 173.626C60.1089 173.626 60.9702 173.848 61.7302 174.291C62.5029 174.722 63.1109 175.33 63.5542 176.115C64.0102 176.9 64.2382 177.825 64.2382 178.889C64.2382 179.966 64.0102 180.897 63.5542 181.682C63.1109 182.467 62.5029 183.075 61.7302 183.506C60.9702 183.937 60.1089 184.152 59.1462 184.152ZM53.1042 187.686V173.778H55.9352V175.868L55.8782 178.908L56.0682 181.929V187.686H53.1042ZM58.6332 181.72C59.1272 181.72 59.5642 181.606 59.9442 181.378C60.3369 181.15 60.6472 180.827 60.8752 180.409C61.1159 179.978 61.2362 179.472 61.2362 178.889C61.2362 178.294 61.1159 177.787 60.8752 177.369C60.6472 176.951 60.3369 176.628 59.9442 176.4C59.5642 176.172 59.1272 176.058 58.6332 176.058C58.1392 176.058 57.6959 176.172 57.3032 176.4C56.9106 176.628 56.6002 176.951 56.3722 177.369C56.1442 177.787 56.0302 178.294 56.0302 178.889C56.0302 179.472 56.1442 179.978 56.3722 180.409C56.6002 180.827 56.9106 181.15 57.3032 181.378C57.6959 181.606 58.1392 181.72 58.6332 181.72ZM68.1295 184V175.526L68.7945 176.21H64.6715V173.778H74.5325V176.21H70.4095L71.0745 175.526V184H68.1295ZM86.6385 184V173.778H89.5835V184H86.6385ZM81.4895 177.046C82.8322 177.059 83.8392 177.363 84.5105 177.958C85.1945 178.541 85.5365 179.37 85.5365 180.447C85.5365 181.574 85.1502 182.455 84.3775 183.088C83.6048 183.709 82.5092 184.019 81.0905 184.019L76.1125 184V173.778H79.0575V177.046H81.4895ZM80.8245 181.91C81.3945 181.923 81.8315 181.802 82.1355 181.549C82.4395 181.296 82.5915 180.916 82.5915 180.409C82.5915 179.902 82.4395 179.541 82.1355 179.326C81.8315 179.098 81.3945 178.978 80.8245 178.965L79.0575 178.946V181.91H80.8245ZM97.8215 184V173.778H100.766V177.768H105.212V173.778H108.176V184H105.212V180.181H100.766V184H97.8215ZM116.011 184.152C114.846 184.152 113.82 183.924 112.933 183.468C112.059 183.012 111.381 182.391 110.9 181.606C110.419 180.808 110.178 179.902 110.178 178.889C110.178 177.863 110.412 176.957 110.881 176.172C111.362 175.374 112.015 174.753 112.838 174.31C113.661 173.854 114.592 173.626 115.631 173.626C116.632 173.626 117.531 173.841 118.329 174.272C119.14 174.69 119.779 175.298 120.248 176.096C120.717 176.881 120.951 177.825 120.951 178.927C120.951 179.041 120.945 179.174 120.932 179.326C120.919 179.465 120.907 179.598 120.894 179.725H112.591V177.996H119.336L118.196 178.509C118.196 177.977 118.088 177.515 117.873 177.122C117.658 176.729 117.36 176.425 116.98 176.21C116.6 175.982 116.157 175.868 115.65 175.868C115.143 175.868 114.694 175.982 114.301 176.21C113.921 176.425 113.623 176.736 113.408 177.141C113.193 177.534 113.085 178.002 113.085 178.547V179.003C113.085 179.56 113.205 180.054 113.446 180.485C113.699 180.903 114.048 181.226 114.491 181.454C114.947 181.669 115.479 181.777 116.087 181.777C116.632 181.777 117.107 181.695 117.512 181.53C117.93 181.365 118.31 181.118 118.652 180.789L120.229 182.499C119.76 183.031 119.171 183.443 118.462 183.734C117.753 184.013 116.936 184.152 116.011 184.152ZM130.16 182.67V176.21H126.816L126.759 177.521C126.734 178.066 126.702 178.585 126.664 179.079C126.626 179.573 126.55 180.023 126.436 180.428C126.335 180.821 126.183 181.156 125.98 181.435C125.777 181.701 125.505 181.885 125.163 181.986L122.237 181.568C122.604 181.568 122.902 181.46 123.13 181.245C123.358 181.017 123.535 180.707 123.662 180.314C123.789 179.909 123.884 179.453 123.947 178.946C124.01 178.427 124.055 177.882 124.08 177.312L124.213 173.778H133.124V182.67H130.16ZM121.895 186.204V181.568H134.587V186.204H131.832V184H124.65V186.204H121.895ZM141.449 184.152C140.284 184.152 139.258 183.924 138.371 183.468C137.497 183.012 136.82 182.391 136.338 181.606C135.857 180.808 135.616 179.902 135.616 178.889C135.616 177.863 135.851 176.957 136.319 176.172C136.801 175.374 137.453 174.753 138.276 174.31C139.1 173.854 140.031 173.626 141.069 173.626C142.07 173.626 142.969 173.841 143.767 174.272C144.578 174.69 145.218 175.298 145.686 176.096C146.155 176.881 146.389 177.825 146.389 178.927C146.389 179.041 146.383 179.174 146.37 179.326C146.358 179.465 146.345 179.598 146.332 179.725H138.029V177.996H144.774L143.634 178.509C143.634 177.977 143.527 177.515 143.311 177.122C143.096 176.729 142.798 176.425 142.418 176.21C142.038 175.982 141.595 175.868 141.088 175.868C140.582 175.868 140.132 175.982 139.739 176.21C139.359 176.425 139.062 176.736 138.846 177.141C138.631 177.534 138.523 178.002 138.523 178.547V179.003C138.523 179.56 138.644 180.054 138.884 180.485C139.138 180.903 139.486 181.226 139.929 181.454C140.385 181.669 140.917 181.777 141.525 181.777C142.07 181.777 142.545 181.695 142.95 181.53C143.368 181.365 143.748 181.118 144.09 180.789L145.667 182.499C145.199 183.031 144.61 183.443 143.9 183.734C143.191 184.013 142.374 184.152 141.449 184.152ZM147.277 183.981L147.429 181.549C147.505 181.562 147.581 181.574 147.657 181.587C147.733 181.587 147.802 181.587 147.866 181.587C148.22 181.587 148.499 181.486 148.702 181.283C148.904 181.08 149.056 180.808 149.158 180.466C149.259 180.111 149.329 179.712 149.367 179.269C149.417 178.826 149.455 178.363 149.481 177.882L149.633 173.778H158.373V184H155.409V175.488L156.074 176.21H151.59L152.217 175.45L152.084 178.015C152.046 178.927 151.97 179.763 151.856 180.523C151.754 181.283 151.583 181.942 151.343 182.499C151.102 183.044 150.779 183.468 150.374 183.772C149.968 184.063 149.449 184.209 148.816 184.209C148.588 184.209 148.347 184.19 148.094 184.152C147.84 184.114 147.568 184.057 147.277 183.981ZM161.223 184V173.778H164.168V179.858L169.146 173.778H171.863V184H168.918V177.92L163.959 184H161.223Z" fill="white"/>
<defs>
<linearGradient id="paint0_linear_74_16" x1="100" y1="0" x2="100" y2="206" gradientUnits="userSpaceOnUse">
<stop stop-opacity="0.7"/>
<stop offset="1" stop-color="white"/>
</linearGradient>
</defs>
</svg>
