<svg width="200" height="206" viewBox="0 0 200 206" fill="none" xmlns="http://www.w3.org/2000/svg">
<rect width="200" height="206" rx="10" fill="#4B917D"/>
<rect width="200" height="206" rx="10" fill="url(#paint0_linear_74_32)" fill-opacity="0.2"/>
<path d="M18.44 54V37.564L19.672 38.796H12.42V34.4H29.892V38.796H22.668L23.9 37.564V54H18.44ZM38.0844 54.252C36.4231 54.252 34.9484 53.916 33.6604 53.244C32.3724 52.572 31.3551 51.648 30.6084 50.472C29.8804 49.2773 29.5164 47.9147 29.5164 46.384C29.5164 44.8533 29.8804 43.5 30.6084 42.324C31.3551 41.148 32.3724 40.2333 33.6604 39.58C34.9484 38.908 36.4231 38.572 38.0844 38.572C39.7457 38.572 41.2204 38.908 42.5084 39.58C43.8151 40.2333 44.8324 41.148 45.5604 42.324C46.2884 43.5 46.6524 44.8533 46.6524 46.384C46.6524 47.9147 46.2884 49.2773 45.5604 50.472C44.8324 51.648 43.8151 52.572 42.5084 53.244C41.2204 53.916 39.7457 54.252 38.0844 54.252ZM38.0844 50.024C38.7004 50.024 39.2417 49.884 39.7084 49.604C40.1937 49.324 40.5764 48.9133 40.8564 48.372C41.1364 47.812 41.2764 47.1493 41.2764 46.384C41.2764 45.6187 41.1364 44.9747 40.8564 44.452C40.5764 43.9107 40.1937 43.5 39.7084 43.22C39.2417 42.94 38.7004 42.8 38.0844 42.8C37.4871 42.8 36.9457 42.94 36.4604 43.22C35.9937 43.5 35.6111 43.9107 35.3124 44.452C35.0324 44.9747 34.8924 45.6187 34.8924 46.384C34.8924 47.1493 35.0324 47.812 35.3124 48.372C35.6111 48.9133 35.9937 49.324 36.4604 49.604C36.9457 49.884 37.4871 50.024 38.0844 50.024ZM49.1475 54V38.824H64.8275V54H59.5355V41.904L60.7115 43.052H53.2915L54.4395 41.904V54H49.1475ZM79.9886 54V41.876L81.1366 43.052H75.0886V38.824H90.1526V43.052H84.1046L85.2806 41.876V54H79.9886ZM101.762 54.252C100.474 54.252 99.3725 53.972 98.4579 53.412C97.5432 52.8333 96.8432 51.9747 96.3579 50.836C95.8912 49.6787 95.6579 48.204 95.6579 46.412C95.6579 44.6013 95.8819 43.1267 96.3299 41.988C96.7779 40.8307 97.4499 39.972 98.3459 39.412C99.2605 38.852 100.399 38.572 101.762 38.572C103.143 38.572 104.394 38.8987 105.514 39.552C106.653 40.1867 107.549 41.092 108.202 42.268C108.874 43.4253 109.21 44.8067 109.21 46.412C109.21 48.0173 108.874 49.408 108.202 50.584C107.549 51.76 106.653 52.6653 105.514 53.3C104.394 53.9347 103.143 54.252 101.762 54.252ZM92.2139 59.432V38.824H97.2819V41.4L97.2539 46.412L97.5339 51.452V59.432H92.2139ZM100.642 50.024C101.239 50.024 101.771 49.884 102.238 49.604C102.723 49.324 103.106 48.9133 103.386 48.372C103.685 47.8307 103.834 47.1773 103.834 46.412C103.834 45.6467 103.685 44.9933 103.386 44.452C103.106 43.9107 102.723 43.5 102.238 43.22C101.771 42.94 101.239 42.8 100.642 42.8C100.045 42.8 99.5032 42.94 99.0179 43.22C98.5512 43.5 98.1685 43.9107 97.8699 44.452C97.5899 44.9933 97.4499 45.6467 97.4499 46.412C97.4499 47.1773 97.5899 47.8307 97.8699 48.372C98.1685 48.9133 98.5512 49.324 99.0179 49.604C99.5032 49.884 100.045 50.024 100.642 50.024ZM119.577 54.252C117.785 54.252 116.217 53.916 114.873 53.244C113.547 52.5533 112.511 51.62 111.765 50.444C111.037 49.2493 110.673 47.896 110.673 46.384C110.673 44.872 111.027 43.528 111.737 42.352C112.465 41.1573 113.463 40.2333 114.733 39.58C116.002 38.908 117.43 38.572 119.017 38.572C120.51 38.572 121.873 38.88 123.105 39.496C124.337 40.0933 125.317 40.98 126.045 42.156C126.773 43.332 127.137 44.76 127.137 46.44C127.137 46.6267 127.127 46.8413 127.109 47.084C127.09 47.3267 127.071 47.5507 127.053 47.756H115.041V44.956H124.225L122.209 45.74C122.227 45.0493 122.097 44.452 121.817 43.948C121.555 43.444 121.182 43.052 120.697 42.772C120.23 42.492 119.679 42.352 119.045 42.352C118.41 42.352 117.85 42.492 117.365 42.772C116.898 43.052 116.534 43.4533 116.273 43.976C116.011 44.48 115.881 45.0773 115.881 45.768V46.58C115.881 47.3267 116.03 47.9707 116.329 48.512C116.646 49.0533 117.094 49.4733 117.673 49.772C118.251 50.052 118.942 50.192 119.745 50.192C120.491 50.192 121.126 50.0893 121.649 49.884C122.19 49.66 122.722 49.324 123.245 48.876L126.045 51.788C125.317 52.5907 124.421 53.2067 123.357 53.636C122.293 54.0467 121.033 54.252 119.577 54.252ZM140.588 54L135.968 46.916L140.252 44.396L146.86 54H140.588ZM129.948 54V38.824H135.268V54H129.948ZM133.7 48.596V44.424H139.188V48.596H133.7ZM140.784 47L135.8 46.496L140.896 38.824H146.524L140.784 47ZM155.663 54.252C154.001 54.252 152.527 53.916 151.239 53.244C149.951 52.572 148.933 51.648 148.187 50.472C147.459 49.2773 147.095 47.9147 147.095 46.384C147.095 44.8533 147.459 43.5 148.187 42.324C148.933 41.148 149.951 40.2333 151.239 39.58C152.527 38.908 154.001 38.572 155.663 38.572C157.324 38.572 158.799 38.908 160.087 39.58C161.393 40.2333 162.411 41.148 163.139 42.324C163.867 43.5 164.231 44.8533 164.231 46.384C164.231 47.9147 163.867 49.2773 163.139 50.472C162.411 51.648 161.393 52.572 160.087 53.244C158.799 53.916 157.324 54.252 155.663 54.252ZM155.663 50.024C156.279 50.024 156.82 49.884 157.287 49.604C157.772 49.324 158.155 48.9133 158.435 48.372C158.715 47.812 158.855 47.1493 158.855 46.384C158.855 45.6187 158.715 44.9747 158.435 44.452C158.155 43.9107 157.772 43.5 157.287 43.22C156.82 42.94 156.279 42.8 155.663 42.8C155.065 42.8 154.524 42.94 154.039 43.22C153.572 43.5 153.189 43.9107 152.891 44.452C152.611 44.9747 152.471 45.6187 152.471 46.384C152.471 47.1493 152.611 47.812 152.891 48.372C153.189 48.9133 153.572 49.324 154.039 49.604C154.524 49.884 155.065 50.024 155.663 50.024ZM166.726 54V38.824H174.874C176.834 38.824 178.364 39.1693 179.466 39.86C180.567 40.532 181.118 41.5027 181.118 42.772C181.118 43.9853 180.604 44.956 179.578 45.684C178.57 46.3933 177.207 46.748 175.49 46.748L175.966 45.628C177.814 45.628 179.204 45.9733 180.138 46.664C181.09 47.336 181.566 48.3253 181.566 49.632C181.566 50.976 181.043 52.04 179.998 52.824C178.971 53.608 177.394 54 175.266 54H166.726ZM171.486 50.556H174.79C175.443 50.556 175.928 50.444 176.246 50.22C176.563 49.9773 176.722 49.6227 176.722 49.156C176.722 48.6707 176.563 48.316 176.246 48.092C175.947 47.868 175.48 47.756 174.846 47.756H171.486V50.556ZM171.486 44.928H174.398C175.032 44.928 175.499 44.816 175.798 44.592C176.096 44.3493 176.246 44.004 176.246 43.556C176.246 43.108 176.096 42.7813 175.798 42.576C175.499 42.352 175.032 42.24 174.398 42.24H171.486V44.928Z" fill="white"/>
<path d="M14.1 96V76.4H30.48V80.684H19.56V83.848H24.628C27.0173 83.848 28.8373 84.352 30.088 85.36C31.3573 86.368 31.992 87.824 31.992 89.728C31.992 91.688 31.2827 93.228 29.864 94.348C28.4453 95.4493 26.4573 96 23.9 96H14.1ZM19.56 92.024H23.536C24.4507 92.024 25.1507 91.8373 25.636 91.464C26.14 91.0907 26.392 90.5587 26.392 89.868C26.392 88.4867 25.44 87.796 23.536 87.796H19.56V92.024ZM44.0939 96.252C42.8059 96.252 41.7046 95.972 40.7899 95.412C39.8752 94.8333 39.1752 93.9747 38.6899 92.836C38.2232 91.6787 37.9899 90.204 37.9899 88.412C37.9899 86.6013 38.2139 85.1267 38.6619 83.988C39.1099 82.8307 39.7819 81.972 40.6779 81.412C41.5926 80.852 42.7312 80.572 44.0939 80.572C45.4752 80.572 46.7259 80.8987 47.8459 81.552C48.9846 82.1867 49.8806 83.092 50.5339 84.268C51.2059 85.4253 51.5419 86.8067 51.5419 88.412C51.5419 90.0173 51.2059 91.408 50.5339 92.584C49.8806 93.76 48.9846 94.6653 47.8459 95.3C46.7259 95.9347 45.4752 96.252 44.0939 96.252ZM34.5459 101.432V80.824H39.6139V83.4L39.5859 88.412L39.8659 93.452V101.432H34.5459ZM42.9739 92.024C43.5712 92.024 44.1032 91.884 44.5699 91.604C45.0552 91.324 45.4379 90.9133 45.7179 90.372C46.0166 89.8307 46.1659 89.1773 46.1659 88.412C46.1659 87.6467 46.0166 86.9933 45.7179 86.452C45.4379 85.9107 45.0552 85.5 44.5699 85.22C44.1032 84.94 43.5712 84.8 42.9739 84.8C42.3766 84.8 41.8352 84.94 41.3499 85.22C40.8832 85.5 40.5006 85.9107 40.2019 86.452C39.9219 86.9933 39.7819 87.6467 39.7819 88.412C39.7819 89.1773 39.9219 89.8307 40.2019 90.372C40.5006 90.9133 40.8832 91.324 41.3499 91.604C41.8352 91.884 42.3766 92.024 42.9739 92.024ZM62.7566 96V93.172L62.3926 92.472V87.264C62.3926 86.424 62.1312 85.78 61.6086 85.332C61.1046 84.8653 60.2926 84.632 59.1726 84.632C58.4446 84.632 57.7072 84.7533 56.9606 84.996C56.2139 85.22 55.5792 85.5373 55.0566 85.948L53.2646 82.336C54.1232 81.776 55.1499 81.3467 56.3446 81.048C57.5579 80.7307 58.7619 80.572 59.9566 80.572C62.4206 80.572 64.3246 81.1413 65.6686 82.28C67.0312 83.4 67.7126 85.164 67.7126 87.572V96H62.7566ZM58.2766 96.252C57.0632 96.252 56.0366 96.0467 55.1966 95.636C54.3566 95.2253 53.7126 94.6653 53.2646 93.956C52.8352 93.2467 52.6206 92.4533 52.6206 91.576C52.6206 90.6427 52.8539 89.84 53.3206 89.168C53.8059 88.4773 54.5432 87.9547 55.5326 87.6C56.5219 87.2267 57.8006 87.04 59.3686 87.04H62.9526V89.812H60.0966C59.2379 89.812 58.6312 89.952 58.2766 90.232C57.9406 90.512 57.7726 90.8853 57.7726 91.352C57.7726 91.8187 57.9499 92.192 58.3046 92.472C58.6592 92.752 59.1446 92.892 59.7606 92.892C60.3392 92.892 60.8619 92.752 61.3286 92.472C61.8139 92.1733 62.1686 91.7253 62.3926 91.128L63.1206 93.088C62.8406 94.1333 62.2899 94.9267 61.4686 95.468C60.6659 95.9907 59.6019 96.252 58.2766 96.252ZM76.3744 96.308C77.8491 96.308 79.1837 96.1213 80.3784 95.748C81.5731 95.3747 82.5251 94.824 83.2344 94.096C83.9437 93.368 84.2984 92.4813 84.2984 91.436C84.2984 90.2973 83.8131 89.4013 82.8424 88.748C81.8904 88.076 80.5837 87.74 78.9224 87.74L78.8104 88.72C79.7624 88.72 80.6211 88.552 81.3864 88.216C82.1517 87.8613 82.7584 87.3947 83.2064 86.816C83.6544 86.2373 83.8784 85.5747 83.8784 84.828C83.8784 83.8573 83.5331 83.0547 82.8424 82.42C82.1517 81.7667 81.2184 81.2813 80.0424 80.964C78.8851 80.628 77.5784 80.4787 76.1224 80.516C75.1144 80.5347 74.0877 80.6653 73.0424 80.908C71.9971 81.1507 70.9704 81.4773 69.9624 81.888L71.1944 85.388C72.0531 85.0707 72.8837 84.828 73.6864 84.66C74.5077 84.4733 75.2917 84.38 76.0384 84.38C76.6171 84.38 77.0837 84.436 77.4384 84.548C77.8117 84.6413 78.0824 84.7813 78.2504 84.968C78.4371 85.136 78.5304 85.3413 78.5304 85.584C78.5304 85.8267 78.4557 86.0413 78.3064 86.228C78.1757 86.396 77.9704 86.5267 77.6904 86.62C77.4104 86.6947 77.0651 86.732 76.6544 86.732H73.8544V89.84H77.1304C77.7464 89.84 78.2037 89.9333 78.5024 90.12C78.8011 90.3067 78.9504 90.6053 78.9504 91.016C78.9504 91.3147 78.8291 91.576 78.5864 91.8C78.3624 92.0053 78.0451 92.164 77.6344 92.276C77.2237 92.3693 76.7384 92.416 76.1784 92.416C75.2451 92.416 74.3304 92.332 73.4344 92.164C72.5384 91.996 71.6797 91.744 70.8584 91.408L69.4864 94.992C70.5504 95.44 71.6704 95.776 72.8464 96C74.0224 96.2053 75.1984 96.308 76.3744 96.308ZM86.8818 96V80.824H92.1738V88.776L98.5298 80.824H103.43V96H98.1098V88.02L91.8098 96H86.8818ZM105.467 96L105.691 91.66C105.822 91.6787 105.943 91.6973 106.055 91.716C106.167 91.716 106.27 91.716 106.363 91.716C106.83 91.716 107.194 91.604 107.455 91.38C107.735 91.1373 107.94 90.8107 108.071 90.4C108.22 89.9893 108.323 89.5133 108.379 88.972C108.454 88.412 108.5 87.8053 108.519 87.152L108.743 80.824H122.463V96H117.143V83.848L118.319 85.052H112.243L113.363 83.792L113.195 87.376C113.139 88.7387 113.018 89.98 112.831 91.1C112.663 92.2013 112.392 93.144 112.019 93.928C111.646 94.712 111.132 95.3187 110.479 95.748C109.844 96.1587 109.032 96.364 108.043 96.364C107.688 96.364 107.287 96.3267 106.839 96.252C106.41 96.196 105.952 96.112 105.467 96ZM126.038 96V80.824H131.33V88.776L137.686 80.824H142.586V96H137.266V88.02L130.966 96H126.038ZM155.711 96V91.072L156.411 91.884H152.547C150.288 91.884 148.506 91.4267 147.199 90.512C145.892 89.5787 145.239 88.2533 145.239 86.536C145.239 84.7067 145.92 83.2973 147.283 82.308C148.646 81.3187 150.484 80.824 152.799 80.824H160.443V96H155.711ZM144.987 96L148.991 90.232H154.367L150.615 96H144.987ZM155.711 89.476V83.708L156.411 85.024H152.911C152.202 85.024 151.651 85.164 151.259 85.444C150.867 85.7053 150.671 86.1347 150.671 86.732C150.671 87.8893 151.408 88.468 152.883 88.468H156.411L155.711 89.476Z" fill="#B8D3CB"/>
<path d="M35.975 179.041C35.3163 179.307 34.683 179.51 34.075 179.649C33.467 179.776 32.8843 179.839 32.327 179.839C30.541 179.839 29.173 179.415 28.223 178.566C27.273 177.705 26.798 176.47 26.798 174.861V170.7H29.838V174.519C29.838 175.431 30.085 176.121 30.579 176.59C31.073 177.046 31.776 177.274 32.688 177.274C33.2707 177.274 33.8343 177.211 34.379 177.084C34.9237 176.945 35.4303 176.748 35.899 176.495L35.975 179.041ZM35.538 184V170.7H38.578V184H35.538ZM47.7744 184V182.005L47.5844 181.568V177.996C47.5844 177.363 47.3881 176.869 46.9954 176.514C46.6154 176.159 46.0264 175.982 45.2284 175.982C44.6838 175.982 44.1454 176.071 43.6134 176.248C43.0941 176.413 42.6508 176.641 42.2834 176.932L41.2194 174.861C41.7768 174.468 42.4481 174.164 43.2334 173.949C44.0188 173.734 44.8168 173.626 45.6274 173.626C47.1854 173.626 48.3951 173.993 49.2564 174.728C50.1178 175.463 50.5484 176.609 50.5484 178.167V184H47.7744ZM44.6584 184.152C43.8604 184.152 43.1764 184.019 42.6064 183.753C42.0364 183.474 41.5994 183.101 41.2954 182.632C40.9914 182.163 40.8394 181.638 40.8394 181.055C40.8394 180.447 40.9851 179.915 41.2764 179.459C41.5804 179.003 42.0554 178.648 42.7014 178.395C43.3474 178.129 44.1898 177.996 45.2284 177.996H47.9454V179.725H45.5514C44.8548 179.725 44.3734 179.839 44.1074 180.067C43.8541 180.295 43.7274 180.58 43.7274 180.922C43.7274 181.302 43.8731 181.606 44.1644 181.834C44.4684 182.049 44.8801 182.157 45.3994 182.157C45.8934 182.157 46.3368 182.043 46.7294 181.815C47.1221 181.574 47.4071 181.226 47.5844 180.77L48.0404 182.138C47.8251 182.797 47.4324 183.297 46.8624 183.639C46.2924 183.981 45.5578 184.152 44.6584 184.152ZM59.1462 184.152C58.2849 184.152 57.5312 183.962 56.8852 183.582C56.2392 183.202 55.7326 182.626 55.3652 181.853C55.0106 181.068 54.8332 180.08 54.8332 178.889C54.8332 177.686 55.0042 176.698 55.3462 175.925C55.6882 175.152 56.1822 174.576 56.8282 174.196C57.4742 173.816 58.2469 173.626 59.1462 173.626C60.1089 173.626 60.9702 173.848 61.7302 174.291C62.5029 174.722 63.1109 175.33 63.5542 176.115C64.0102 176.9 64.2382 177.825 64.2382 178.889C64.2382 179.966 64.0102 180.897 63.5542 181.682C63.1109 182.467 62.5029 183.075 61.7302 183.506C60.9702 183.937 60.1089 184.152 59.1462 184.152ZM53.1042 187.686V173.778H55.9352V175.868L55.8782 178.908L56.0682 181.929V187.686H53.1042ZM58.6332 181.72C59.1272 181.72 59.5642 181.606 59.9442 181.378C60.3369 181.15 60.6472 180.827 60.8752 180.409C61.1159 179.978 61.2362 179.472 61.2362 178.889C61.2362 178.294 61.1159 177.787 60.8752 177.369C60.6472 176.951 60.3369 176.628 59.9442 176.4C59.5642 176.172 59.1272 176.058 58.6332 176.058C58.1392 176.058 57.6959 176.172 57.3032 176.4C56.9106 176.628 56.6002 176.951 56.3722 177.369C56.1442 177.787 56.0302 178.294 56.0302 178.889C56.0302 179.472 56.1442 179.978 56.3722 180.409C56.6002 180.827 56.9106 181.15 57.3032 181.378C57.6959 181.606 58.1392 181.72 58.6332 181.72ZM68.1295 184V175.526L68.7945 176.21H64.6715V173.778H74.5325V176.21H70.4095L71.0745 175.526V184H68.1295ZM86.6385 184V173.778H89.5835V184H86.6385ZM81.4895 177.046C82.8322 177.059 83.8392 177.363 84.5105 177.958C85.1945 178.541 85.5365 179.37 85.5365 180.447C85.5365 181.574 85.1502 182.455 84.3775 183.088C83.6048 183.709 82.5092 184.019 81.0905 184.019L76.1125 184V173.778H79.0575V177.046H81.4895ZM80.8245 181.91C81.3945 181.923 81.8315 181.802 82.1355 181.549C82.4395 181.296 82.5915 180.916 82.5915 180.409C82.5915 179.902 82.4395 179.541 82.1355 179.326C81.8315 179.098 81.3945 178.978 80.8245 178.965L79.0575 178.946V181.91H80.8245ZM97.8215 184V173.778H100.766V177.768H105.212V173.778H108.176V184H105.212V180.181H100.766V184H97.8215ZM116.011 184.152C114.846 184.152 113.82 183.924 112.933 183.468C112.059 183.012 111.381 182.391 110.9 181.606C110.419 180.808 110.178 179.902 110.178 178.889C110.178 177.863 110.412 176.957 110.881 176.172C111.362 175.374 112.015 174.753 112.838 174.31C113.661 173.854 114.592 173.626 115.631 173.626C116.632 173.626 117.531 173.841 118.329 174.272C119.14 174.69 119.779 175.298 120.248 176.096C120.717 176.881 120.951 177.825 120.951 178.927C120.951 179.041 120.945 179.174 120.932 179.326C120.919 179.465 120.907 179.598 120.894 179.725H112.591V177.996H119.336L118.196 178.509C118.196 177.977 118.088 177.515 117.873 177.122C117.658 176.729 117.36 176.425 116.98 176.21C116.6 175.982 116.157 175.868 115.65 175.868C115.143 175.868 114.694 175.982 114.301 176.21C113.921 176.425 113.623 176.736 113.408 177.141C113.193 177.534 113.085 178.002 113.085 178.547V179.003C113.085 179.56 113.205 180.054 113.446 180.485C113.699 180.903 114.048 181.226 114.491 181.454C114.947 181.669 115.479 181.777 116.087 181.777C116.632 181.777 117.107 181.695 117.512 181.53C117.93 181.365 118.31 181.118 118.652 180.789L120.229 182.499C119.76 183.031 119.171 183.443 118.462 183.734C117.753 184.013 116.936 184.152 116.011 184.152ZM130.16 182.67V176.21H126.816L126.759 177.521C126.734 178.066 126.702 178.585 126.664 179.079C126.626 179.573 126.55 180.023 126.436 180.428C126.335 180.821 126.183 181.156 125.98 181.435C125.777 181.701 125.505 181.885 125.163 181.986L122.237 181.568C122.604 181.568 122.902 181.46 123.13 181.245C123.358 181.017 123.535 180.707 123.662 180.314C123.789 179.909 123.884 179.453 123.947 178.946C124.01 178.427 124.055 177.882 124.08 177.312L124.213 173.778H133.124V182.67H130.16ZM121.895 186.204V181.568H134.587V186.204H131.832V184H124.65V186.204H121.895ZM141.449 184.152C140.284 184.152 139.258 183.924 138.371 183.468C137.497 183.012 136.82 182.391 136.338 181.606C135.857 180.808 135.616 179.902 135.616 178.889C135.616 177.863 135.851 176.957 136.319 176.172C136.801 175.374 137.453 174.753 138.276 174.31C139.1 173.854 140.031 173.626 141.069 173.626C142.07 173.626 142.969 173.841 143.767 174.272C144.578 174.69 145.218 175.298 145.686 176.096C146.155 176.881 146.389 177.825 146.389 178.927C146.389 179.041 146.383 179.174 146.37 179.326C146.358 179.465 146.345 179.598 146.332 179.725H138.029V177.996H144.774L143.634 178.509C143.634 177.977 143.527 177.515 143.311 177.122C143.096 176.729 142.798 176.425 142.418 176.21C142.038 175.982 141.595 175.868 141.088 175.868C140.582 175.868 140.132 175.982 139.739 176.21C139.359 176.425 139.062 176.736 138.846 177.141C138.631 177.534 138.523 178.002 138.523 178.547V179.003C138.523 179.56 138.644 180.054 138.884 180.485C139.138 180.903 139.486 181.226 139.929 181.454C140.385 181.669 140.917 181.777 141.525 181.777C142.07 181.777 142.545 181.695 142.95 181.53C143.368 181.365 143.748 181.118 144.09 180.789L145.667 182.499C145.199 183.031 144.61 183.443 143.9 183.734C143.191 184.013 142.374 184.152 141.449 184.152ZM147.277 183.981L147.429 181.549C147.505 181.562 147.581 181.574 147.657 181.587C147.733 181.587 147.802 181.587 147.866 181.587C148.22 181.587 148.499 181.486 148.702 181.283C148.904 181.08 149.056 180.808 149.158 180.466C149.259 180.111 149.329 179.712 149.367 179.269C149.417 178.826 149.455 178.363 149.481 177.882L149.633 173.778H158.373V184H155.409V175.488L156.074 176.21H151.59L152.217 175.45L152.084 178.015C152.046 178.927 151.97 179.763 151.856 180.523C151.754 181.283 151.583 181.942 151.343 182.499C151.102 183.044 150.779 183.468 150.374 183.772C149.968 184.063 149.449 184.209 148.816 184.209C148.588 184.209 148.347 184.19 148.094 184.152C147.84 184.114 147.568 184.057 147.277 183.981ZM161.223 184V173.778H164.168V179.858L169.146 173.778H171.863V184H168.918V177.92L163.959 184H161.223Z" fill="white"/>
<defs>
<linearGradient id="paint0_linear_74_32" x1="100" y1="0" x2="100" y2="206" gradientUnits="userSpaceOnUse">
<stop stop-opacity="0.7"/>
<stop offset="1" stop-color="white"/>
</linearGradient>
</defs>
</svg>
