<svg width="200" height="206" viewBox="0 0 200 206" fill="none" xmlns="http://www.w3.org/2000/svg">
<rect width="200" height="206" rx="10" fill="#C87D55"/>
<rect width="200" height="206" rx="10" fill="url(#paint0_linear_74_36)" fill-opacity="0.2"/>
<path d="M18.44 54V37.564L19.672 38.796H12.42V34.4H29.892V38.796H22.668L23.9 37.564V54H18.44ZM38.0844 54.252C36.4231 54.252 34.9484 53.916 33.6604 53.244C32.3724 52.572 31.3551 51.648 30.6084 50.472C29.8804 49.2773 29.5164 47.9147 29.5164 46.384C29.5164 44.8533 29.8804 43.5 30.6084 42.324C31.3551 41.148 32.3724 40.2333 33.6604 39.58C34.9484 38.908 36.4231 38.572 38.0844 38.572C39.7457 38.572 41.2204 38.908 42.5084 39.58C43.8151 40.2333 44.8324 41.148 45.5604 42.324C46.2884 43.5 46.6524 44.8533 46.6524 46.384C46.6524 47.9147 46.2884 49.2773 45.5604 50.472C44.8324 51.648 43.8151 52.572 42.5084 53.244C41.2204 53.916 39.7457 54.252 38.0844 54.252ZM38.0844 50.024C38.7004 50.024 39.2417 49.884 39.7084 49.604C40.1937 49.324 40.5764 48.9133 40.8564 48.372C41.1364 47.812 41.2764 47.1493 41.2764 46.384C41.2764 45.6187 41.1364 44.9747 40.8564 44.452C40.5764 43.9107 40.1937 43.5 39.7084 43.22C39.2417 42.94 38.7004 42.8 38.0844 42.8C37.4871 42.8 36.9457 42.94 36.4604 43.22C35.9937 43.5 35.6111 43.9107 35.3124 44.452C35.0324 44.9747 34.8924 45.6187 34.8924 46.384C34.8924 47.1493 35.0324 47.812 35.3124 48.372C35.6111 48.9133 35.9937 49.324 36.4604 49.604C36.9457 49.884 37.4871 50.024 38.0844 50.024ZM49.1475 54V38.824H64.8275V54H59.5355V41.904L60.7115 43.052H53.2915L54.4395 41.904V54H49.1475ZM79.9886 54V41.876L81.1366 43.052H75.0886V38.824H90.1526V43.052H84.1046L85.2806 41.876V54H79.9886ZM101.762 54.252C100.474 54.252 99.3725 53.972 98.4579 53.412C97.5432 52.8333 96.8432 51.9747 96.3579 50.836C95.8912 49.6787 95.6579 48.204 95.6579 46.412C95.6579 44.6013 95.8819 43.1267 96.3299 41.988C96.7779 40.8307 97.4499 39.972 98.3459 39.412C99.2605 38.852 100.399 38.572 101.762 38.572C103.143 38.572 104.394 38.8987 105.514 39.552C106.653 40.1867 107.549 41.092 108.202 42.268C108.874 43.4253 109.21 44.8067 109.21 46.412C109.21 48.0173 108.874 49.408 108.202 50.584C107.549 51.76 106.653 52.6653 105.514 53.3C104.394 53.9347 103.143 54.252 101.762 54.252ZM92.2139 59.432V38.824H97.2819V41.4L97.2539 46.412L97.5339 51.452V59.432H92.2139ZM100.642 50.024C101.239 50.024 101.771 49.884 102.238 49.604C102.723 49.324 103.106 48.9133 103.386 48.372C103.685 47.8307 103.834 47.1773 103.834 46.412C103.834 45.6467 103.685 44.9933 103.386 44.452C103.106 43.9107 102.723 43.5 102.238 43.22C101.771 42.94 101.239 42.8 100.642 42.8C100.045 42.8 99.5032 42.94 99.0179 43.22C98.5512 43.5 98.1685 43.9107 97.8699 44.452C97.5899 44.9933 97.4499 45.6467 97.4499 46.412C97.4499 47.1773 97.5899 47.8307 97.8699 48.372C98.1685 48.9133 98.5512 49.324 99.0179 49.604C99.5032 49.884 100.045 50.024 100.642 50.024ZM119.577 54.252C117.785 54.252 116.217 53.916 114.873 53.244C113.547 52.5533 112.511 51.62 111.765 50.444C111.037 49.2493 110.673 47.896 110.673 46.384C110.673 44.872 111.027 43.528 111.737 42.352C112.465 41.1573 113.463 40.2333 114.733 39.58C116.002 38.908 117.43 38.572 119.017 38.572C120.51 38.572 121.873 38.88 123.105 39.496C124.337 40.0933 125.317 40.98 126.045 42.156C126.773 43.332 127.137 44.76 127.137 46.44C127.137 46.6267 127.127 46.8413 127.109 47.084C127.09 47.3267 127.071 47.5507 127.053 47.756H115.041V44.956H124.225L122.209 45.74C122.227 45.0493 122.097 44.452 121.817 43.948C121.555 43.444 121.182 43.052 120.697 42.772C120.23 42.492 119.679 42.352 119.045 42.352C118.41 42.352 117.85 42.492 117.365 42.772C116.898 43.052 116.534 43.4533 116.273 43.976C116.011 44.48 115.881 45.0773 115.881 45.768V46.58C115.881 47.3267 116.03 47.9707 116.329 48.512C116.646 49.0533 117.094 49.4733 117.673 49.772C118.251 50.052 118.942 50.192 119.745 50.192C120.491 50.192 121.126 50.0893 121.649 49.884C122.19 49.66 122.722 49.324 123.245 48.876L126.045 51.788C125.317 52.5907 124.421 53.2067 123.357 53.636C122.293 54.0467 121.033 54.252 119.577 54.252ZM140.588 54L135.968 46.916L140.252 44.396L146.86 54H140.588ZM129.948 54V38.824H135.268V54H129.948ZM133.7 48.596V44.424H139.188V48.596H133.7ZM140.784 47L135.8 46.496L140.896 38.824H146.524L140.784 47ZM155.663 54.252C154.001 54.252 152.527 53.916 151.239 53.244C149.951 52.572 148.933 51.648 148.187 50.472C147.459 49.2773 147.095 47.9147 147.095 46.384C147.095 44.8533 147.459 43.5 148.187 42.324C148.933 41.148 149.951 40.2333 151.239 39.58C152.527 38.908 154.001 38.572 155.663 38.572C157.324 38.572 158.799 38.908 160.087 39.58C161.393 40.2333 162.411 41.148 163.139 42.324C163.867 43.5 164.231 44.8533 164.231 46.384C164.231 47.9147 163.867 49.2773 163.139 50.472C162.411 51.648 161.393 52.572 160.087 53.244C158.799 53.916 157.324 54.252 155.663 54.252ZM155.663 50.024C156.279 50.024 156.82 49.884 157.287 49.604C157.772 49.324 158.155 48.9133 158.435 48.372C158.715 47.812 158.855 47.1493 158.855 46.384C158.855 45.6187 158.715 44.9747 158.435 44.452C158.155 43.9107 157.772 43.5 157.287 43.22C156.82 42.94 156.279 42.8 155.663 42.8C155.065 42.8 154.524 42.94 154.039 43.22C153.572 43.5 153.189 43.9107 152.891 44.452C152.611 44.9747 152.471 45.6187 152.471 46.384C152.471 47.1493 152.611 47.812 152.891 48.372C153.189 48.9133 153.572 49.324 154.039 49.604C154.524 49.884 155.065 50.024 155.663 50.024ZM166.726 54V38.824H174.874C176.834 38.824 178.364 39.1693 179.466 39.86C180.567 40.532 181.118 41.5027 181.118 42.772C181.118 43.9853 180.604 44.956 179.578 45.684C178.57 46.3933 177.207 46.748 175.49 46.748L175.966 45.628C177.814 45.628 179.204 45.9733 180.138 46.664C181.09 47.336 181.566 48.3253 181.566 49.632C181.566 50.976 181.043 52.04 179.998 52.824C178.971 53.608 177.394 54 175.266 54H166.726ZM171.486 50.556H174.79C175.443 50.556 175.928 50.444 176.246 50.22C176.563 49.9773 176.722 49.6227 176.722 49.156C176.722 48.6707 176.563 48.316 176.246 48.092C175.947 47.868 175.48 47.756 174.846 47.756H171.486V50.556ZM171.486 44.928H174.398C175.032 44.928 175.499 44.816 175.798 44.592C176.096 44.3493 176.246 44.004 176.246 43.556C176.246 43.108 176.096 42.7813 175.798 42.576C175.499 42.352 175.032 42.24 174.398 42.24H171.486V44.928Z" fill="white"/>
<path d="M13.5 88V74H20.3C21.98 74 23.28 74.32 24.2 74.96C25.1333 75.5867 25.6 76.48 25.6 77.64C25.6 78.7733 25.1667 79.6667 24.3 80.32C23.4333 80.96 22.2733 81.28 20.82 81.28L21.22 80.34C22.7933 80.34 24.02 80.6533 24.9 81.28C25.7933 81.8933 26.24 82.8 26.24 84C26.24 85.2267 25.76 86.2 24.8 86.92C23.8533 87.64 22.48 88 20.68 88H13.5ZM17.4 85.16H20.52C21.0933 85.16 21.52 85.04 21.8 84.8C22.0933 84.5467 22.24 84.18 22.24 83.7C22.24 83.22 22.0933 82.8667 21.8 82.64C21.52 82.4 21.0933 82.28 20.52 82.28H17.4V85.16ZM17.4 79.6H19.92C20.48 79.6 20.9 79.4867 21.18 79.26C21.46 79.02 21.6 78.6733 21.6 78.22C21.6 77.7667 21.46 77.4267 21.18 77.2C20.9 76.96 20.48 76.84 19.92 76.84H17.4V79.6ZM33.7428 88.18C32.4628 88.18 31.3428 87.94 30.3828 87.46C29.4361 86.9667 28.6961 86.3 28.1628 85.46C27.6428 84.6067 27.3828 83.64 27.3828 82.56C27.3828 81.48 27.6361 80.52 28.1428 79.68C28.6628 78.8267 29.3761 78.1667 30.2828 77.7C31.1895 77.22 32.2095 76.98 33.3428 76.98C34.4095 76.98 35.3828 77.2 36.2628 77.64C37.1428 78.0667 37.8428 78.7 38.3628 79.54C38.8828 80.38 39.1428 81.4 39.1428 82.6C39.1428 82.7333 39.1361 82.8867 39.1228 83.06C39.1095 83.2333 39.0961 83.3933 39.0828 83.54H30.5028V81.54H37.0628L35.6228 82.1C35.6361 81.6067 35.5428 81.18 35.3428 80.82C35.1561 80.46 34.8895 80.18 34.5428 79.98C34.2095 79.78 33.8161 79.68 33.3628 79.68C32.9095 79.68 32.5095 79.78 32.1628 79.98C31.8295 80.18 31.5695 80.4667 31.3828 80.84C31.1961 81.2 31.1028 81.6267 31.1028 82.12V82.7C31.1028 83.2333 31.2095 83.6933 31.4228 84.08C31.6495 84.4667 31.9695 84.7667 32.3828 84.98C32.7961 85.18 33.2895 85.28 33.8628 85.28C34.3961 85.28 34.8495 85.2067 35.2228 85.06C35.6095 84.9 35.9895 84.66 36.3628 84.34L38.3628 86.42C37.8428 86.9933 37.2028 87.4333 36.4428 87.74C35.6828 88.0333 34.7828 88.18 33.7428 88.18ZM40.012 88L40.172 84.9C40.2654 84.9133 40.352 84.9267 40.432 84.94C40.512 84.94 40.5854 84.94 40.652 84.94C40.9854 84.94 41.2454 84.86 41.432 84.7C41.632 84.5267 41.7787 84.2933 41.872 84C41.9787 83.7067 42.052 83.3667 42.092 82.98C42.1454 82.58 42.1787 82.1467 42.192 81.68L42.352 77.16H52.152V88H48.352V79.32L49.192 80.18H44.852L45.652 79.28L45.532 81.84C45.492 82.8133 45.4054 83.7 45.272 84.5C45.152 85.2867 44.9587 85.96 44.692 86.52C44.4254 87.08 44.0587 87.5133 43.592 87.82C43.1387 88.1133 42.5587 88.26 41.852 88.26C41.5987 88.26 41.312 88.2333 40.992 88.18C40.6854 88.14 40.3587 88.08 40.012 88ZM54.7058 88V77.16H58.4858V82.84L63.0258 77.16H66.5258V88H62.7258V82.3L58.2258 88H54.7058ZM76.6808 88L73.3808 82.94L76.4408 81.14L81.1608 88H76.6808ZM69.0808 88V77.16H72.8808V88H69.0808ZM71.7608 84.14V81.16H75.6808V84.14H71.7608ZM76.8208 83L73.2608 82.64L76.9008 77.16H80.9208L76.8208 83ZM87.4481 88.18C86.2615 88.18 85.2081 87.94 84.2881 87.46C83.3681 86.98 82.6415 86.32 82.1081 85.48C81.5881 84.6267 81.3281 83.6533 81.3281 82.56C81.3281 81.4667 81.5881 80.5 82.1081 79.66C82.6415 78.82 83.3681 78.1667 84.2881 77.7C85.2081 77.22 86.2615 76.98 87.4481 76.98C88.6348 76.98 89.6881 77.22 90.6081 77.7C91.5415 78.1667 92.2681 78.82 92.7881 79.66C93.3081 80.5 93.5681 81.4667 93.5681 82.56C93.5681 83.6533 93.3081 84.6267 92.7881 85.48C92.2681 86.32 91.5415 86.98 90.6081 87.46C89.6881 87.94 88.6348 88.18 87.4481 88.18ZM87.4481 85.16C87.8881 85.16 88.2748 85.06 88.6081 84.86C88.9548 84.66 89.2281 84.3667 89.4281 83.98C89.6281 83.58 89.7281 83.1067 89.7281 82.56C89.7281 82.0133 89.6281 81.5533 89.4281 81.18C89.2281 80.7933 88.9548 80.5 88.6081 80.3C88.2748 80.1 87.8881 80 87.4481 80C87.0215 80 86.6348 80.1 86.2881 80.3C85.9548 80.5 85.6815 80.7933 85.4681 81.18C85.2681 81.5533 85.1681 82.0133 85.1681 82.56C85.1681 83.1067 85.2681 83.58 85.4681 83.98C85.6815 84.3667 85.9548 84.66 86.2881 84.86C86.6348 85.06 87.0215 85.16 87.4481 85.16ZM100.99 88.28C100.11 88.28 99.2903 88.1533 98.5303 87.9C97.7836 87.6467 97.1303 87.2467 96.5703 86.7C96.0236 86.1533 95.5903 85.44 95.2703 84.56C94.9636 83.68 94.8103 82.6133 94.8103 81.36C94.8103 80.52 94.8836 79.7467 95.0303 79.04C95.177 78.3333 95.397 77.6867 95.6903 77.1C95.997 76.5 96.3836 75.9733 96.8503 75.52C97.3303 75.0667 97.8903 74.6867 98.5303 74.38C99.1703 74.0733 99.9036 73.84 100.73 73.68L105.99 72.68L106.51 75.86L101.95 76.72C101.67 76.7733 101.364 76.84 101.03 76.92C100.71 77 100.397 77.12 100.09 77.28C99.7836 77.4267 99.497 77.6333 99.2303 77.9C98.977 78.1667 98.7703 78.52 98.6103 78.96C98.4636 79.3867 98.3903 79.92 98.3903 80.56C98.3903 80.7467 98.397 80.9 98.4103 81.02C98.437 81.1267 98.457 81.2533 98.4703 81.4C98.4836 81.5333 98.4903 81.74 98.4903 82.02L97.4303 81.04C97.7503 80.48 98.1303 80.0067 98.5703 79.62C99.0236 79.2333 99.5436 78.9333 100.13 78.72C100.717 78.5067 101.37 78.4 102.09 78.4C103.144 78.4 104.05 78.6067 104.81 79.02C105.57 79.42 106.15 79.98 106.55 80.7C106.964 81.4067 107.17 82.2133 107.17 83.12C107.17 84.1867 106.904 85.1067 106.37 85.88C105.837 86.64 105.104 87.2333 104.17 87.66C103.25 88.0733 102.19 88.28 100.99 88.28ZM101.09 85.4C101.53 85.4 101.91 85.3067 102.23 85.12C102.564 84.9333 102.824 84.6733 103.01 84.34C103.197 84.0067 103.29 83.6333 103.29 83.22C103.29 82.7933 103.197 82.4267 103.01 82.12C102.824 81.8133 102.564 81.5733 102.23 81.4C101.91 81.2267 101.53 81.14 101.09 81.14C100.65 81.14 100.257 81.2267 99.9103 81.4C99.577 81.5733 99.317 81.8067 99.1303 82.1C98.9436 82.3933 98.8503 82.7467 98.8503 83.16C98.8503 83.5733 98.9436 83.9533 99.1303 84.3C99.317 84.6467 99.577 84.92 99.9103 85.12C100.257 85.3067 100.65 85.4 101.09 85.4ZM115.745 88.18C114.825 88.18 114.038 87.98 113.385 87.58C112.731 87.1667 112.231 86.5533 111.885 85.74C111.551 84.9133 111.385 83.86 111.385 82.58C111.385 81.2867 111.545 80.2333 111.865 79.42C112.185 78.5933 112.665 77.98 113.305 77.58C113.958 77.18 114.771 76.98 115.745 76.98C116.731 76.98 117.625 77.2133 118.425 77.68C119.238 78.1333 119.878 78.78 120.345 79.62C120.825 80.4467 121.065 81.4333 121.065 82.58C121.065 83.7267 120.825 84.72 120.345 85.56C119.878 86.4 119.238 87.0467 118.425 87.5C117.625 87.9533 116.731 88.18 115.745 88.18ZM108.925 91.88V77.16H112.545V79L112.525 82.58L112.725 86.18V91.88H108.925ZM114.945 85.16C115.371 85.16 115.751 85.06 116.085 84.86C116.431 84.66 116.705 84.3667 116.905 83.98C117.118 83.5933 117.225 83.1267 117.225 82.58C117.225 82.0333 117.118 81.5667 116.905 81.18C116.705 80.7933 116.431 80.5 116.085 80.3C115.751 80.1 115.371 80 114.945 80C114.518 80 114.131 80.1 113.785 80.3C113.451 80.5 113.178 80.7933 112.965 81.18C112.765 81.5667 112.665 82.0333 112.665 82.58C112.665 83.1267 112.765 83.5933 112.965 83.98C113.178 84.3667 113.451 84.66 113.785 84.86C114.131 85.06 114.518 85.16 114.945 85.16ZM122.889 88V77.16H126.669V82.84L131.209 77.16H134.709V88H130.909V82.3L126.409 88H122.889ZM139.684 88V79.34L140.504 80.18H136.184V77.16H146.944V80.18H142.624L143.464 79.34V88H139.684ZM154.837 88V85.98L154.577 85.48V81.76C154.577 81.16 154.39 80.7 154.017 80.38C153.657 80.0467 153.077 79.88 152.277 79.88C151.757 79.88 151.23 79.9667 150.697 80.14C150.163 80.3 149.71 80.5267 149.337 80.82L148.057 78.24C148.67 77.84 149.403 77.5333 150.257 77.32C151.123 77.0933 151.983 76.98 152.837 76.98C154.597 76.98 155.957 77.3867 156.917 78.2C157.89 79 158.377 80.26 158.377 81.98V88H154.837ZM151.637 88.18C150.77 88.18 150.037 88.0333 149.437 87.74C148.837 87.4467 148.377 87.0467 148.057 86.54C147.75 86.0333 147.597 85.4667 147.597 84.84C147.597 84.1733 147.763 83.6 148.097 83.12C148.443 82.6267 148.97 82.2533 149.677 82C150.383 81.7333 151.297 81.6 152.417 81.6H154.977V83.58H152.937C152.323 83.58 151.89 83.68 151.637 83.88C151.397 84.08 151.277 84.3467 151.277 84.68C151.277 85.0133 151.403 85.28 151.657 85.48C151.91 85.68 152.257 85.78 152.697 85.78C153.11 85.78 153.483 85.68 153.817 85.48C154.163 85.2667 154.417 84.9467 154.577 84.52L155.097 85.92C154.897 86.6667 154.503 87.2333 153.917 87.62C153.343 87.9933 152.583 88.18 151.637 88.18ZM13.28 112V101.16H17.06V105.18H20.96V101.16H24.76V112H20.96V108.2H17.06V112H13.28ZM27.323 112V101.16H31.103V106.84L35.643 101.16H39.143V112H35.343V106.3L30.843 112H27.323ZM48.518 112V108.48L49.018 109.06H46.258C44.6446 109.06 43.3713 108.733 42.438 108.08C41.5046 107.413 41.038 106.467 41.038 105.24C41.038 103.933 41.5246 102.927 42.498 102.22C43.4713 101.513 44.7846 101.16 46.438 101.16H51.898V112H48.518ZM40.858 112L43.718 107.88H47.558L44.878 112H40.858ZM48.518 107.34V103.22L49.018 104.16H46.518C46.0113 104.16 45.618 104.26 45.338 104.46C45.058 104.647 44.918 104.953 44.918 105.38C44.918 106.207 45.4446 106.62 46.498 106.62H49.018L48.518 107.34Z" fill="#E9CABA"/>
<path d="M35.975 179.041C35.3163 179.307 34.683 179.51 34.075 179.649C33.467 179.776 32.8843 179.839 32.327 179.839C30.541 179.839 29.173 179.415 28.223 178.566C27.273 177.705 26.798 176.47 26.798 174.861V170.7H29.838V174.519C29.838 175.431 30.085 176.121 30.579 176.59C31.073 177.046 31.776 177.274 32.688 177.274C33.2707 177.274 33.8343 177.211 34.379 177.084C34.9237 176.945 35.4303 176.748 35.899 176.495L35.975 179.041ZM35.538 184V170.7H38.578V184H35.538ZM47.7744 184V182.005L47.5844 181.568V177.996C47.5844 177.363 47.3881 176.869 46.9954 176.514C46.6154 176.159 46.0264 175.982 45.2284 175.982C44.6838 175.982 44.1454 176.071 43.6134 176.248C43.0941 176.413 42.6508 176.641 42.2834 176.932L41.2194 174.861C41.7768 174.468 42.4481 174.164 43.2334 173.949C44.0188 173.734 44.8168 173.626 45.6274 173.626C47.1854 173.626 48.3951 173.993 49.2564 174.728C50.1178 175.463 50.5484 176.609 50.5484 178.167V184H47.7744ZM44.6584 184.152C43.8604 184.152 43.1764 184.019 42.6064 183.753C42.0364 183.474 41.5994 183.101 41.2954 182.632C40.9914 182.163 40.8394 181.638 40.8394 181.055C40.8394 180.447 40.9851 179.915 41.2764 179.459C41.5804 179.003 42.0554 178.648 42.7014 178.395C43.3474 178.129 44.1898 177.996 45.2284 177.996H47.9454V179.725H45.5514C44.8548 179.725 44.3734 179.839 44.1074 180.067C43.8541 180.295 43.7274 180.58 43.7274 180.922C43.7274 181.302 43.8731 181.606 44.1644 181.834C44.4684 182.049 44.8801 182.157 45.3994 182.157C45.8934 182.157 46.3368 182.043 46.7294 181.815C47.1221 181.574 47.4071 181.226 47.5844 180.77L48.0404 182.138C47.8251 182.797 47.4324 183.297 46.8624 183.639C46.2924 183.981 45.5578 184.152 44.6584 184.152ZM59.1462 184.152C58.2849 184.152 57.5312 183.962 56.8852 183.582C56.2392 183.202 55.7326 182.626 55.3652 181.853C55.0106 181.068 54.8332 180.08 54.8332 178.889C54.8332 177.686 55.0042 176.698 55.3462 175.925C55.6882 175.152 56.1822 174.576 56.8282 174.196C57.4742 173.816 58.2469 173.626 59.1462 173.626C60.1089 173.626 60.9702 173.848 61.7302 174.291C62.5029 174.722 63.1109 175.33 63.5542 176.115C64.0102 176.9 64.2382 177.825 64.2382 178.889C64.2382 179.966 64.0102 180.897 63.5542 181.682C63.1109 182.467 62.5029 183.075 61.7302 183.506C60.9702 183.937 60.1089 184.152 59.1462 184.152ZM53.1042 187.686V173.778H55.9352V175.868L55.8782 178.908L56.0682 181.929V187.686H53.1042ZM58.6332 181.72C59.1272 181.72 59.5642 181.606 59.9442 181.378C60.3369 181.15 60.6472 180.827 60.8752 180.409C61.1159 179.978 61.2362 179.472 61.2362 178.889C61.2362 178.294 61.1159 177.787 60.8752 177.369C60.6472 176.951 60.3369 176.628 59.9442 176.4C59.5642 176.172 59.1272 176.058 58.6332 176.058C58.1392 176.058 57.6959 176.172 57.3032 176.4C56.9106 176.628 56.6002 176.951 56.3722 177.369C56.1442 177.787 56.0302 178.294 56.0302 178.889C56.0302 179.472 56.1442 179.978 56.3722 180.409C56.6002 180.827 56.9106 181.15 57.3032 181.378C57.6959 181.606 58.1392 181.72 58.6332 181.72ZM68.1295 184V175.526L68.7945 176.21H64.6715V173.778H74.5325V176.21H70.4095L71.0745 175.526V184H68.1295ZM86.6385 184V173.778H89.5835V184H86.6385ZM81.4895 177.046C82.8322 177.059 83.8392 177.363 84.5105 177.958C85.1945 178.541 85.5365 179.37 85.5365 180.447C85.5365 181.574 85.1502 182.455 84.3775 183.088C83.6048 183.709 82.5092 184.019 81.0905 184.019L76.1125 184V173.778H79.0575V177.046H81.4895ZM80.8245 181.91C81.3945 181.923 81.8315 181.802 82.1355 181.549C82.4395 181.296 82.5915 180.916 82.5915 180.409C82.5915 179.902 82.4395 179.541 82.1355 179.326C81.8315 179.098 81.3945 178.978 80.8245 178.965L79.0575 178.946V181.91H80.8245ZM97.8215 184V173.778H100.766V177.768H105.212V173.778H108.176V184H105.212V180.181H100.766V184H97.8215ZM116.011 184.152C114.846 184.152 113.82 183.924 112.933 183.468C112.059 183.012 111.381 182.391 110.9 181.606C110.419 180.808 110.178 179.902 110.178 178.889C110.178 177.863 110.412 176.957 110.881 176.172C111.362 175.374 112.015 174.753 112.838 174.31C113.661 173.854 114.592 173.626 115.631 173.626C116.632 173.626 117.531 173.841 118.329 174.272C119.14 174.69 119.779 175.298 120.248 176.096C120.717 176.881 120.951 177.825 120.951 178.927C120.951 179.041 120.945 179.174 120.932 179.326C120.919 179.465 120.907 179.598 120.894 179.725H112.591V177.996H119.336L118.196 178.509C118.196 177.977 118.088 177.515 117.873 177.122C117.658 176.729 117.36 176.425 116.98 176.21C116.6 175.982 116.157 175.868 115.65 175.868C115.143 175.868 114.694 175.982 114.301 176.21C113.921 176.425 113.623 176.736 113.408 177.141C113.193 177.534 113.085 178.002 113.085 178.547V179.003C113.085 179.56 113.205 180.054 113.446 180.485C113.699 180.903 114.048 181.226 114.491 181.454C114.947 181.669 115.479 181.777 116.087 181.777C116.632 181.777 117.107 181.695 117.512 181.53C117.93 181.365 118.31 181.118 118.652 180.789L120.229 182.499C119.76 183.031 119.171 183.443 118.462 183.734C117.753 184.013 116.936 184.152 116.011 184.152ZM130.16 182.67V176.21H126.816L126.759 177.521C126.734 178.066 126.702 178.585 126.664 179.079C126.626 179.573 126.55 180.023 126.436 180.428C126.335 180.821 126.183 181.156 125.98 181.435C125.777 181.701 125.505 181.885 125.163 181.986L122.237 181.568C122.604 181.568 122.902 181.46 123.13 181.245C123.358 181.017 123.535 180.707 123.662 180.314C123.789 179.909 123.884 179.453 123.947 178.946C124.01 178.427 124.055 177.882 124.08 177.312L124.213 173.778H133.124V182.67H130.16ZM121.895 186.204V181.568H134.587V186.204H131.832V184H124.65V186.204H121.895ZM141.449 184.152C140.284 184.152 139.258 183.924 138.371 183.468C137.497 183.012 136.82 182.391 136.338 181.606C135.857 180.808 135.616 179.902 135.616 178.889C135.616 177.863 135.851 176.957 136.319 176.172C136.801 175.374 137.453 174.753 138.276 174.31C139.1 173.854 140.031 173.626 141.069 173.626C142.07 173.626 142.969 173.841 143.767 174.272C144.578 174.69 145.218 175.298 145.686 176.096C146.155 176.881 146.389 177.825 146.389 178.927C146.389 179.041 146.383 179.174 146.37 179.326C146.358 179.465 146.345 179.598 146.332 179.725H138.029V177.996H144.774L143.634 178.509C143.634 177.977 143.527 177.515 143.311 177.122C143.096 176.729 142.798 176.425 142.418 176.21C142.038 175.982 141.595 175.868 141.088 175.868C140.582 175.868 140.132 175.982 139.739 176.21C139.359 176.425 139.062 176.736 138.846 177.141C138.631 177.534 138.523 178.002 138.523 178.547V179.003C138.523 179.56 138.644 180.054 138.884 180.485C139.138 180.903 139.486 181.226 139.929 181.454C140.385 181.669 140.917 181.777 141.525 181.777C142.07 181.777 142.545 181.695 142.95 181.53C143.368 181.365 143.748 181.118 144.09 180.789L145.667 182.499C145.199 183.031 144.61 183.443 143.9 183.734C143.191 184.013 142.374 184.152 141.449 184.152ZM147.277 183.981L147.429 181.549C147.505 181.562 147.581 181.574 147.657 181.587C147.733 181.587 147.802 181.587 147.866 181.587C148.22 181.587 148.499 181.486 148.702 181.283C148.904 181.08 149.056 180.808 149.158 180.466C149.259 180.111 149.329 179.712 149.367 179.269C149.417 178.826 149.455 178.363 149.481 177.882L149.633 173.778H158.373V184H155.409V175.488L156.074 176.21H151.59L152.217 175.45L152.084 178.015C152.046 178.927 151.97 179.763 151.856 180.523C151.754 181.283 151.583 181.942 151.343 182.499C151.102 183.044 150.779 183.468 150.374 183.772C149.968 184.063 149.449 184.209 148.816 184.209C148.588 184.209 148.347 184.19 148.094 184.152C147.84 184.114 147.568 184.057 147.277 183.981ZM161.223 184V173.778H164.168V179.858L169.146 173.778H171.863V184H168.918V177.92L163.959 184H161.223Z" fill="white"/>
<defs>
<linearGradient id="paint0_linear_74_36" x1="100" y1="0" x2="100" y2="206" gradientUnits="userSpaceOnUse">
<stop stop-opacity="0.7"/>
<stop offset="1" stop-color="white"/>
</linearGradient>
</defs>
</svg>
