<svg width="34" height="34" viewBox="0 0 34 34" fill="none" xmlns="http://www.w3.org/2000/svg">
<path d="M20.8113 24.4942C20.9426 24.3631 21.0468 24.2074 21.1179 24.0361C21.189 23.8647 21.2256 23.681 21.2256 23.4954C21.2256 23.3099 21.189 23.1262 21.1179 22.9548C21.0468 22.7834 20.9426 22.6277 20.8113 22.4967L15.3146 17L20.8113 11.5033C21.0762 11.2385 21.225 10.8792 21.225 10.5046C21.225 10.13 21.0762 9.77073 20.8113 9.50584C20.5464 9.24096 20.1871 9.09215 19.8125 9.09215C19.4379 9.09215 19.0787 9.24096 18.8138 9.50584L12.3113 16.0083C12.18 16.1394 12.0758 16.2951 12.0047 16.4665C11.9336 16.6378 11.897 16.8216 11.897 17.0071C11.897 17.1926 11.9336 17.3763 12.0047 17.5477C12.0758 17.7191 12.18 17.8748 12.3113 18.0058L18.8138 24.5083C19.3521 25.0467 20.2588 25.0467 20.8113 24.4942Z" fill="white"/>
</svg>
