<svg width="22" height="22" viewBox="0 0 22 22" fill="none" xmlns="http://www.w3.org/2000/svg">
<g clip-path="url(#clip0_15_6)">
<path d="M13.0625 18.5625H18.5625C19.2421 18.5625 19.8196 18.4092 20.2992 18.1421L13.0625 13.8253V18.5625ZM21.8832 15.8847C21.9615 15.5351 22.0014 15.1649 22.0014 14.7809V13.0622H17.1511L21.8818 15.8847M0.120353 6.10466C0.0388858 6.47038 -0.00146863 6.84406 4.08232e-05 7.21875V8.9375H4.86892L0.120353 6.10466ZM8.93754 3.4375H3.43754C2.76276 3.4375 2.18904 3.58875 1.71157 3.85206L8.93754 8.16269V3.4375ZM1.73357 18.1589C2.20657 18.4147 2.77273 18.5625 3.43754 18.5625H8.93754V13.8614L1.73357 18.1589ZM4.08232e-05 13.0625V14.7812C4.08232e-05 15.1769 0.0419783 15.5581 0.124822 15.9167L4.90948 13.0625H4.08232e-05ZM20.3208 3.86891C19.8375 3.59459 19.2521 3.4375 18.5625 3.4375H13.0625V8.19878L20.3208 3.86891ZM22 8.9375V7.21875C22 6.84269 21.9612 6.48003 21.8859 6.13697L17.1917 8.9375H22Z" fill="#2E3192"/>
<path d="M17.1916 8.9375L21.8859 6.13697C21.6707 5.15247 21.1468 4.33744 20.3208 3.86891L13.0625 8.19878V3.4375H12.375V9.625H22V8.9375H17.1916ZM0 12.375V13.0625H4.90944L0.124781 15.9167C0.352 16.8981 0.891688 17.7038 1.73353 18.1589L8.9375 13.8614V18.5625H9.625V12.375H0ZM22 12.375H12.375V18.5625H13.0625V13.8253L20.2991 18.1424C21.1313 17.6791 21.6617 16.8685 21.8818 15.8854L17.1511 13.0625H22V12.375ZM8.9375 3.4375V8.16269L1.71153 3.85206C0.876219 4.31269 0.342375 5.12188 0.119969 6.10466L4.86888 8.9375H0V9.625H9.625V3.4375H8.9375Z" fill="#E6E7E8"/>
<path d="M12.375 9.625V3.4375H9.625V9.625H0V12.375H9.625V18.5625H12.375V12.375H22V9.625H12.375Z" fill="#BE1E2D"/>
<path d="M7.54129 8.93751L0.649098 4.82316C0.500941 5.04316 0.382004 5.28516 0.283691 5.54298L5.97172 8.93751H7.54025M21.6873 16.5309L15.9078 13.0625H14.3073L21.2899 17.2628C21.4518 17.0365 21.5853 16.7912 21.6873 16.5323M20.8723 4.25941L13.0519 8.93751L14.6397 8.93854L21.3879 4.89845C21.2373 4.62448 21.0785 4.44779 20.8723 4.25941ZM0.623316 17.1445C0.777946 17.38 0.964032 17.5933 1.17641 17.7784L8.95926 13.0625H7.39072L0.623316 17.1445Z" fill="#BE1E2D"/>
</g>
<defs>
<clipPath id="clip0_15_6">
<rect width="22" height="22" fill="white"/>
</clipPath>
</defs>
</svg>
