<svg width="20" height="23" viewBox="0 0 20 23" fill="none" xmlns="http://www.w3.org/2000/svg">
<path d="M13.75 8.25C13.5511 8.25 13.3603 8.32902 13.2197 8.46967C13.079 8.61032 13 8.80109 13 9V18C13 18.1989 13.079 18.3897 13.2197 18.5303C13.3603 18.671 13.5511 18.75 13.75 18.75C13.9489 18.75 14.1397 18.671 14.2803 18.5303C14.421 18.3897 14.5 18.1989 14.5 18V9C14.5 8.80109 14.421 8.61032 14.2803 8.46967C14.1397 8.32902 13.9489 8.25 13.75 8.25ZM10 8.25C9.80109 8.25 9.61032 8.32902 9.46967 8.46967C9.32902 8.61032 9.25 8.80109 9.25 9V18C9.25 18.1989 9.32902 18.3897 9.46967 18.5303C9.61032 18.671 9.80109 18.75 10 18.75C10.1989 18.75 10.3897 18.671 10.5303 18.5303C10.671 18.3897 10.75 18.1989 10.75 18V9C10.75 8.80109 10.671 8.61032 10.5303 8.46967C10.3897 8.32902 10.1989 8.25 10 8.25ZM5.5 9C5.5 8.80109 5.57902 8.61032 5.71967 8.46967C5.86032 8.32902 6.05109 8.25 6.25 8.25C6.44891 8.25 6.63968 8.32902 6.78033 8.46967C6.92098 8.61032 7 8.80109 7 9V18C7 18.1989 6.92098 18.3897 6.78033 18.5303C6.63968 18.671 6.44891 18.75 6.25 18.75C6.05109 18.75 5.86032 18.671 5.71967 18.5303C5.57902 18.3897 5.5 18.1989 5.5 18V9Z" fill="#C93D3D"/>
<path fill-rule="evenodd" clip-rule="evenodd" d="M0.25 4.5C0.25 4.89782 0.408035 5.27936 0.689341 5.56066C0.970644 5.84196 1.35217 6 1.75 6H2.5V19.5C2.5 20.2956 2.81607 21.0587 3.37868 21.6213C3.94129 22.1839 4.70435 22.5 5.5 22.5H14.5C15.2956 22.5 16.0587 22.1839 16.6213 21.6213C17.1839 21.0587 17.5 20.2956 17.5 19.5V6H18.25C18.6478 6 19.0294 5.84196 19.3107 5.56066C19.592 5.27936 19.75 4.89782 19.75 4.5V3C19.75 2.60218 19.592 2.22064 19.3107 1.93934C19.0294 1.65804 18.6478 1.5 18.25 1.5H13C13 1.10218 12.842 0.720644 12.5607 0.43934C12.2794 0.158035 11.8978 0 11.5 0L8.5 0C8.10218 0 7.72064 0.158035 7.43934 0.43934C7.15804 0.720644 7 1.10218 7 1.5H1.75C1.35217 1.5 0.970644 1.65804 0.689341 1.93934C0.408035 2.22064 0.25 2.60218 0.25 3V4.5ZM15.823 6L16 6.0885V19.5C16 19.8978 15.842 20.2794 15.5607 20.5607C15.2794 20.842 14.8978 21 14.5 21H5.5C5.10218 21 4.72064 20.842 4.43934 20.5607C4.15804 20.2794 4 19.8978 4 19.5V6.0885L4.177 6H15.823ZM18.25 4.5V3H1.75V4.5H18.25Z" fill="#C93D3D"/>
</svg>
