<svg width="36" height="36" viewBox="0 0 36 36" fill="none" xmlns="http://www.w3.org/2000/svg">
<g clip-path="url(#clip0_17_142)">
<path d="M33 19C32.8684 19.0008 32.738 18.9755 32.6161 18.9258C32.4943 18.876 32.3835 18.8027 32.29 18.71L18 4.40999L3.71003 18.71C3.51873 18.8738 3.27265 18.9594 3.02097 18.9497C2.7693 18.94 2.53056 18.8357 2.35246 18.6576C2.17437 18.4795 2.07004 18.2407 2.06032 17.989C2.05059 17.7374 2.1362 17.4913 2.30003 17.3L17.3 2.29999C17.4874 2.11374 17.7408 2.0092 18.005 2.0092C18.2692 2.0092 18.5227 2.11374 18.71 2.29999L33.71 17.3C33.8476 17.4404 33.9408 17.6182 33.9779 17.8113C34.015 18.0043 33.9944 18.204 33.9186 18.3854C33.8429 18.5668 33.7153 18.7218 33.552 18.8311C33.3886 18.9404 33.1966 18.9992 33 19Z" fill="white"/>
<path d="M18 7.78999L6 19.83V32C6 32.5304 6.21071 33.0391 6.58579 33.4142C6.96086 33.7893 7.46957 34 8 34H15V24H21V34H28C28.5304 34 29.0391 33.7893 29.4142 33.4142C29.7893 33.0391 30 32.5304 30 32V19.76L18 7.78999Z" fill="white"/>
</g>
<defs>
<clipPath id="clip0_17_142">
<rect width="36" height="36" fill="white"/>
</clipPath>
</defs>
</svg>
