<svg width="22" height="22" viewBox="0 0 22 22" fill="none" xmlns="http://www.w3.org/2000/svg">
<g clip-path="url(#clip0_261_4)">
<path d="M20.6007 10.5661L11.4341 1.39943C11.3196 1.28561 11.1647 1.22173 11.0032 1.22173C10.8418 1.22173 10.6869 1.28561 10.5724 1.39943L1.40574 10.5661C1.30562 10.683 1.2533 10.8334 1.25924 10.9872C1.26519 11.141 1.32894 11.2869 1.43778 11.3957C1.54662 11.5046 1.69251 11.5683 1.84631 11.5743C2.00012 11.5802 2.1505 11.5279 2.2674 11.4278L11.0002 2.69499L19.733 11.4339C19.8499 11.534 20.0002 11.5863 20.154 11.5804C20.3078 11.5744 20.4537 11.5107 20.5626 11.4018C20.6714 11.293 20.7352 11.1471 20.7411 10.9933C20.7471 10.8395 20.6947 10.6891 20.5946 10.5722L20.6007 10.5661Z" fill="white"/>
<path d="M17.1114 19.5555H14.0559V13.4444H7.94477V19.5555H4.88921V11L3.66699 12.2222V19.5555C3.66699 19.8797 3.79576 20.1906 4.02497 20.4198C4.25418 20.649 4.56506 20.7778 4.88921 20.7778H9.16699V14.6667H12.8337V20.7778H17.1114C17.4356 20.7778 17.7465 20.649 17.9757 20.4198C18.2049 20.1906 18.3337 19.8797 18.3337 19.5555V12.0755L17.1114 10.8533V19.5555Z" fill="white"/>
</g>
<defs>
<clipPath id="clip0_261_4">
<rect width="22" height="22" fill="white"/>
</clipPath>
</defs>
</svg>
