<svg width="36" height="36" viewBox="0 0 36 36" fill="none" xmlns="http://www.w3.org/2000/svg">
<path d="M6.0083 4.5H7.5083C9.0893 4.5 10.3853 5.724 10.5008 7.275L10.5083 7.5V28.5C10.5078 29.2565 10.2217 29.9849 9.70715 30.5395C9.19262 31.0941 8.48765 31.4339 7.7333 31.491L7.5083 31.5H6.0083C5.25154 31.4999 4.52275 31.2139 3.96785 30.6994C3.41295 30.1848 3.07291 29.4796 3.0158 28.725L3.0083 28.5V7.5C3.0083 5.919 4.2323 4.623 5.7833 4.5075L6.0083 4.5H7.5083H6.0083ZM15.0083 4.5H16.5083C18.0893 4.5 19.3853 5.724 19.5008 7.275L19.5083 7.5V28.5C19.5078 29.2565 19.2217 29.9849 18.7071 30.5395C18.1926 31.0941 17.4876 31.4339 16.7333 31.491L16.5083 31.5H15.0083C14.2515 31.4999 13.5227 31.2139 12.9678 30.6994C12.413 30.1848 12.0729 29.4796 12.0158 28.725L12.0083 28.5V7.5C12.0083 5.919 13.2323 4.623 14.7833 4.5075L15.0083 4.5H16.5083H15.0083ZM25.4693 7.5C26.7293 7.5 27.8813 8.2965 28.3043 9.519L28.3748 9.7545L32.8973 27.372C33.0856 28.105 32.9899 28.8821 32.6293 29.5475C32.2688 30.2128 31.6701 30.7174 30.9533 30.96L30.7373 31.0245L29.2838 31.3965C28.5542 31.5828 27.7812 31.4883 27.1181 31.1316C26.4549 30.7748 25.9499 30.182 25.7033 29.4705L25.6328 29.238L21.1088 11.6205C20.9207 10.8871 21.0168 10.1097 21.3779 9.44428C21.739 8.77882 22.3384 8.27451 23.0558 8.0325L23.2703 7.968L24.7223 7.596C24.9663 7.53259 25.2172 7.50033 25.4693 7.5ZM7.5083 6.75H6.0083C5.83284 6.75023 5.66299 6.81185 5.5282 6.92418C5.39341 7.03651 5.30217 7.19246 5.2703 7.365L5.2583 7.5V28.5C5.2583 28.866 5.5238 29.175 5.8733 29.238L6.0083 29.25H7.5083C7.8758 29.25 8.1833 28.983 8.2463 28.635L8.2583 28.5V7.5C8.25807 7.32454 8.19645 7.15469 8.08412 7.0199C7.97179 6.88511 7.81584 6.79387 7.6433 6.762L7.5083 6.75ZM16.5083 6.75H15.0083C14.8328 6.75023 14.663 6.81185 14.5282 6.92418C14.3934 7.03651 14.3022 7.19246 14.2703 7.365L14.2583 7.5V28.5C14.2583 28.866 14.5238 29.175 14.8733 29.238L15.0083 29.25H16.5083C16.8758 29.25 17.1833 28.983 17.2463 28.635L17.2583 28.5V7.5C17.2581 7.32454 17.1964 7.15469 17.0841 7.0199C16.9718 6.88511 16.8158 6.79387 16.6433 6.762L16.5083 6.75ZM25.4708 9.75L25.3763 9.756L25.2818 9.7755L23.8298 10.146C23.6616 10.1882 23.5134 10.2877 23.4104 10.4272C23.3075 10.5668 23.2564 10.7378 23.2658 10.911L23.2883 11.061L27.8123 28.6785C27.8538 28.8392 27.9474 28.9816 28.0785 29.0834C28.2097 29.1852 28.3708 29.2406 28.5368 29.241L28.6313 29.2365L28.7243 29.2185L30.1793 28.8435C30.3491 28.7998 30.4981 28.6979 30.6006 28.5557C30.7031 28.4135 30.7525 28.2399 30.7403 28.065L30.7178 27.933L26.1953 10.3125C26.1536 10.1519 26.0599 10.0097 25.9288 9.9079C25.7978 9.80615 25.6367 9.75063 25.4708 9.75Z" fill="white"/>
</svg>
