<svg width="34" height="35" viewBox="0 0 34 35" fill="none" xmlns="http://www.w3.org/2000/svg">
<path d="M13.1887 10.2581C13.0574 10.3892 12.9532 10.5449 12.8821 10.7163C12.811 10.8876 12.7744 11.0714 12.7744 11.2569C12.7744 11.4424 12.811 11.6261 12.8821 11.7975C12.9532 11.9689 13.0574 12.1246 13.1887 12.2556L18.6854 17.7523L13.1887 23.249C12.9238 23.5139 12.775 23.8731 12.775 24.2477C12.775 24.6223 12.9238 24.9816 13.1887 25.2465C13.4536 25.5114 13.8129 25.6602 14.1875 25.6602C14.5621 25.6602 14.9213 25.5114 15.1862 25.2465L21.6887 18.744C21.82 18.6129 21.9242 18.4572 21.9953 18.2859C22.0664 18.1145 22.103 17.9308 22.103 17.7452C22.103 17.5597 22.0664 17.376 21.9953 17.2046C21.9242 17.0332 21.82 16.8775 21.6887 16.7465L15.1862 10.244C14.6479 9.70564 13.7412 9.70564 13.1887 10.2581Z" fill="white"/>
</svg>
