<svg width="22" height="22" viewBox="0 0 22 22" fill="none" xmlns="http://www.w3.org/2000/svg">
<path d="M17.9175 0.472878C17.4443 0.474023 16.9759 0.568866 16.5395 0.751935C16.1031 0.935003 15.7072 1.20267 15.3748 1.5395L1.53841 15.375L1.48416 15.6489L0.526906 20.4614L0.253906 21.7459L1.53928 21.4729L6.35178 20.5156L6.62478 20.4605L20.4612 6.625C20.7989 6.29314 21.0671 5.89733 21.2502 5.46068C21.4333 5.02404 21.5276 4.5553 21.5276 4.08182C21.5276 3.60833 21.4333 3.13959 21.2502 2.70295C21.0671 2.2663 20.7989 1.8705 20.4612 1.53863C20.1285 1.20185 19.7325 0.934282 19.2959 0.751363C18.8594 0.568443 18.3909 0.473794 17.9175 0.472878ZM17.9175 2.14063C18.3585 2.14063 18.803 2.34188 19.23 2.76975C20.0814 3.62025 20.0814 4.54338 19.23 5.39475L18.6018 5.99588L16.003 3.398L16.605 2.76975C17.0329 2.34188 17.4765 2.14063 17.9175 2.14063ZM14.7737 4.62913L17.3707 7.227L6.78928 17.8075C6.21804 16.6898 5.30858 15.781 4.19053 15.2105L14.7737 4.62913ZM3.07053 16.6333C3.58839 16.8416 4.0588 17.1525 4.4535 17.5472C4.84821 17.9419 5.15907 18.4123 5.36741 18.9301L2.49566 19.5041L3.07053 16.6333Z" fill="#8B8B8B"/>
</svg>
