<svg width="18" height="20" viewBox="0 0 18 20" fill="none" xmlns="http://www.w3.org/2000/svg">
<path d="M5 15V12H12V8H5V5L0 9.99999L5 15ZM7 0C6.46957 0 5.96086 0.210713 5.58579 0.585786C5.21071 0.960859 5 1.46957 5 2V4H7V2H16V18H7V16H5V18C5 18.5304 5.21071 19.0391 5.58579 19.4142C5.96086 19.7893 6.46957 20 7 20H16C16.5304 20 17.0391 19.7893 17.4142 19.4142C17.7893 19.0391 18 18.5304 18 18V2C18 1.46957 17.7893 0.960859 17.4142 0.585786C17.0391 0.210713 16.5304 0 16 0H7Z" fill="#C93D3D"/>
</svg>
