<svg width="36" height="36" viewBox="0 0 36 36" fill="none" xmlns="http://www.w3.org/2000/svg">
<path d="M30.3749 18.855V17.1338L32.5349 15.2438C32.9331 14.8928 33.1944 14.4124 33.2726 13.8875C33.3508 13.3625 33.241 12.8268 32.9624 12.375L30.3074 7.87503C30.1101 7.53333 29.8265 7.24951 29.4849 7.05205C29.1433 6.85459 28.7557 6.75043 28.3612 6.75003C28.1166 6.74816 27.8735 6.78615 27.6412 6.86253L24.9074 7.78503C24.4354 7.47139 23.9431 7.18952 23.4337 6.94128L22.8599 4.10628C22.757 3.58834 22.4753 3.12308 22.0639 2.79195C21.6526 2.46081 21.1379 2.28491 20.6099 2.29503H15.3449C14.817 2.28491 14.3022 2.46081 13.8909 2.79195C13.4796 3.12308 13.1978 3.58834 13.0949 4.10628L12.5212 6.94128C12.0081 7.18946 11.512 7.47132 11.0362 7.78503L8.35867 6.81753C8.12388 6.75636 7.88074 6.73356 7.63867 6.75003C7.2441 6.75043 6.85658 6.85459 6.51498 7.05205C6.17337 7.24951 5.8897 7.53333 5.69242 7.87503L3.03742 12.375C2.77483 12.8261 2.67725 13.3545 2.7614 13.8697C2.84555 14.3848 3.10618 14.8547 3.49867 15.1988L5.62492 17.145V18.8663L3.49867 20.7563C3.0951 21.1028 2.82733 21.581 2.74289 22.1062C2.65845 22.6314 2.7628 23.1695 3.03742 23.625L5.69242 28.125C5.8897 28.4667 6.17337 28.7505 6.51498 28.948C6.85658 29.1455 7.2441 29.2496 7.63867 29.25C7.88319 29.2519 8.12638 29.2139 8.35867 29.1375L11.0924 28.215C11.5644 28.5287 12.0567 28.8105 12.5662 29.0588L13.1399 31.8938C13.2428 32.4117 13.5246 32.877 13.9359 33.2081C14.3472 33.5392 14.862 33.7151 15.3899 33.705H20.6999C21.2279 33.7151 21.7426 33.5392 22.1539 33.2081C22.5653 32.877 22.847 32.4117 22.9499 31.8938L23.5237 29.0588C24.0367 28.8106 24.5328 28.5287 25.0087 28.215L27.7312 29.1375C27.9635 29.2139 28.2066 29.2519 28.4512 29.25C28.8457 29.2496 29.2333 29.1455 29.5749 28.948C29.9165 28.7505 30.2001 28.4667 30.3974 28.125L32.9624 23.625C33.225 23.1739 33.3226 22.6455 33.2384 22.1304C33.1543 21.6152 32.8937 21.1454 32.5012 20.8013L30.3749 18.855ZM28.3612 27L24.5024 25.695C23.5991 26.4601 22.5667 27.0582 21.4537 27.4613L20.6549 31.5H15.3449L14.5462 27.5063C13.4419 27.0918 12.4151 26.4947 11.5087 25.74L7.63867 27L4.98367 22.5L8.04367 19.8C7.83565 18.6355 7.83565 17.4433 8.04367 16.2788L4.98367 13.5L7.63867 9.00003L11.4974 10.305C12.4007 9.53991 13.4331 8.94182 14.5462 8.53878L15.3449 4.50003H20.6549L21.4537 8.49378C22.5579 8.90825 23.5847 9.50531 24.4912 10.26L28.3612 9.00003L31.0162 13.5L27.9562 16.2C28.1642 17.3646 28.1642 18.5567 27.9562 19.7213L31.0162 22.5L28.3612 27Z" fill="#EFEFEF"/>
<path d="M18 24.75C16.665 24.75 15.3599 24.3541 14.2499 23.6124C13.1399 22.8708 12.2747 21.8165 11.7638 20.5831C11.2529 19.3497 11.1193 17.9925 11.3797 16.6832C11.6402 15.3738 12.283 14.1711 13.227 13.2271C14.171 12.2831 15.3738 11.6402 16.6831 11.3797C17.9925 11.1193 19.3497 11.253 20.5831 11.7638C21.8165 12.2747 22.8707 13.1399 23.6124 14.2499C24.3541 15.36 24.75 16.665 24.75 18C24.759 18.889 24.5906 19.7708 24.2546 20.5938C23.9186 21.4168 23.4217 22.1645 22.7931 22.7931C22.1645 23.4217 21.4168 23.9186 20.5938 24.2546C19.7707 24.5906 18.8889 24.7591 18 24.75ZM18 13.5C17.4053 13.4862 16.8139 13.5931 16.2617 13.8143C15.7094 14.0356 15.2078 14.3665 14.7872 14.7872C14.3665 15.2079 14.0356 15.7095 13.8143 16.2617C13.5931 16.8139 13.4861 17.4053 13.5 18C13.4861 18.5948 13.5931 19.1861 13.8143 19.7384C14.0356 20.2906 14.3665 20.7922 14.7872 21.2129C15.2078 21.6335 15.7094 21.9645 16.2617 22.1857C16.8139 22.407 17.4053 22.5139 18 22.5C18.5947 22.5139 19.1861 22.407 19.7383 22.1857C20.2906 21.9645 20.7922 21.6335 21.2128 21.2129C21.6335 20.7922 21.9644 20.2906 22.1857 19.7384C22.4069 19.1861 22.5139 18.5948 22.5 18C22.5139 17.4053 22.4069 16.8139 22.1857 16.2617C21.9644 15.7095 21.6335 15.2079 21.2128 14.7872C20.7922 14.3665 20.2906 14.0356 19.7383 13.8143C19.1861 13.5931 18.5947 13.4862 18 13.5Z" fill="#EFEFEF"/>
</svg>
