<svg width="22" height="22" viewBox="0 0 22 22" fill="none" xmlns="http://www.w3.org/2000/svg">
<path d="M12.6688 20.1667H9.33209C9.12303 20.1667 8.92023 20.0953 8.75734 19.9642C8.59445 19.8332 8.48125 19.6504 8.43651 19.4462L8.06342 17.7192C7.56573 17.5011 7.0938 17.2284 6.65634 16.9061L4.97242 17.4423C4.77311 17.5059 4.55804 17.4994 4.36295 17.4238C4.16786 17.3483 4.00447 17.2083 3.89992 17.0271L2.22792 14.1387C2.12447 13.9573 2.08564 13.7462 2.11778 13.5399C2.14992 13.3335 2.25112 13.1442 2.40484 13.0029L3.71109 11.8113C3.65169 11.2714 3.65169 10.7267 3.71109 10.1869L2.40484 8.998C2.25091 8.85662 2.14956 8.66715 2.11742 8.46063C2.08527 8.25412 2.12424 8.04281 2.22792 7.86133L3.89626 4.97108C4.0008 4.78987 4.16419 4.64987 4.35928 4.57434C4.55438 4.4988 4.76944 4.49227 4.96876 4.55583L6.65267 5.09208C6.87634 4.92708 7.10917 4.77308 7.34934 4.63375C7.58126 4.50358 7.81959 4.38533 8.06342 4.27992L8.43742 2.55475C8.48195 2.35051 8.59494 2.16763 8.75766 2.03642C8.92038 1.90521 9.12306 1.83355 9.33209 1.83333H12.6688C12.8778 1.83355 13.0805 1.90521 13.2432 2.03642C13.4059 2.16763 13.5189 2.35051 13.5634 2.55475L13.9411 4.28083C14.4382 4.50016 14.9099 4.77279 15.3482 5.09392L17.033 4.55767C17.2322 4.49434 17.4471 4.50099 17.642 4.57651C17.8368 4.65204 18.0001 4.7919 18.1046 4.97292L19.7729 7.86317C19.9856 8.23625 19.9123 8.70833 19.596 8.99892L18.2898 10.1906C18.3492 10.7304 18.3492 11.2751 18.2898 11.8149L19.596 13.0066C19.9123 13.2981 19.9856 13.7693 19.7729 14.1423L18.1046 17.0326C18 17.2138 17.8367 17.3538 17.6416 17.4293C17.4465 17.5049 17.2314 17.5114 17.0321 17.4478L15.3482 16.9116C14.911 17.2337 14.4394 17.5061 13.942 17.7237L13.5634 19.4462C13.5187 19.6502 13.4057 19.8329 13.2429 19.9639C13.0802 20.095 12.8777 20.1665 12.6688 20.1667V20.1667ZM10.9968 7.33333C10.0243 7.33333 9.09166 7.71964 8.40403 8.40727C7.7164 9.09491 7.33009 10.0275 7.33009 11C7.33009 11.9725 7.7164 12.9051 8.40403 13.5927C9.09166 14.2804 10.0243 14.6667 10.9968 14.6667C11.9692 14.6667 12.9018 14.2804 13.5895 13.5927C14.2771 12.9051 14.6634 11.9725 14.6634 11C14.6634 10.0275 14.2771 9.09491 13.5895 8.40727C12.9018 7.71964 11.9692 7.33333 10.9968 7.33333V7.33333Z" fill="white"/>
</svg>
