<svg width="20" height="20" viewBox="0 0 20 20" fill="none" xmlns="http://www.w3.org/2000/svg">
<g clip-path="url(#clip0_290_84)">
<path d="M7.9075 0.00347656L8.515 0.000976562H11.485L12.0933 0.00347656L12.855 0.0118099L13.2158 0.0176432L13.5642 0.0268099L13.9 0.0384766L14.2233 0.0518099L14.535 0.0693099L14.835 0.0901432L15.1225 0.115143L15.4 0.142643C16.85 0.305977 17.8442 0.655977 18.5942 1.40598C19.3442 2.15598 19.6942 3.14931 19.8575 4.60014L19.8858 4.87764L19.91 5.16598L19.9308 5.46598L19.9475 5.77681L19.9683 6.26681L19.9783 6.60848L19.9892 7.14514L19.9967 7.90764L20 8.72431L19.9992 11.4851L19.9967 12.0935L19.9883 12.8551L19.9825 13.216L19.9733 13.5643L19.9617 13.9001L19.9483 14.2235L19.9308 14.5351L19.91 14.8351L19.885 15.1226L19.8575 15.4001C19.6942 16.8501 19.3442 17.8443 18.5942 18.5943C17.8442 19.3443 16.8508 19.6943 15.4 19.8576L15.1225 19.886L14.8342 19.9101L14.5342 19.931L14.2233 19.9476L13.7333 19.9685L13.3917 19.9785L12.855 19.9893L12.0925 19.9968L11.2758 20.0001L8.515 19.9993L7.90667 19.9968L7.145 19.9885L6.78417 19.9826L6.43583 19.9735L6.1 19.9618L5.77667 19.9485L5.465 19.931L5.165 19.9101L4.8775 19.8851L4.6 19.8576C3.15 19.6943 2.15583 19.3443 1.40583 18.5943C0.655833 17.8443 0.305833 16.851 0.1425 15.4001L0.114167 15.1226L0.09 14.8343L0.0691667 14.5343L0.0525 14.2235L0.0316667 13.7335L0.0216667 13.3918L0.0108333 12.8551L0.00333333 12.0926L0 11.276L0.000833333 8.51514L0.00333333 7.90681L0.0116667 7.14514L0.0175 6.78431L0.0266667 6.43598L0.0383333 6.10014L0.0516667 5.77681L0.0691667 5.46514L0.09 5.16514L0.115 4.87764L0.1425 4.60014C0.305833 3.15014 0.655833 2.15598 1.40583 1.40598C2.15583 0.655977 3.14917 0.305977 4.6 0.142643L4.8775 0.11431L5.16583 0.0901432L5.46583 0.0693099L5.77667 0.0526432L6.26667 0.0318099L6.60833 0.0218099L7.145 0.0109766L7.9075 0.00347656V0.00347656ZM5.65833 6.08348H3.375C3.48333 11.2835 6.08333 14.4085 10.6417 14.4085H10.9V11.4335C12.575 11.6001 13.8417 12.8251 14.35 14.4085H16.7167C16.0667 12.0418 14.3583 10.7335 13.2917 10.2335C14.3583 9.61681 15.8583 8.11681 16.2167 6.08348H14.0667C13.6 7.73348 12.2167 9.23348 10.9 9.37514V6.08348H8.75V11.8501C7.41667 11.5168 5.73333 9.90014 5.65833 6.08348V6.08348Z" fill="white"/>
</g>
<defs>
<clipPath id="clip0_290_84">
<rect width="20" height="20" fill="white"/>
</clipPath>
</defs>
</svg>
